<?xml version="1.0" encoding="UTF-8" standalone="no"?>
<!DOCTYPE svg PUBLIC "-//W3C//DTD SVG 1.1//EN" "http://www.w3.org/Graphics/SVG/1.1/DTD/svg11.dtd">
<!-- Generated by Microsoft Visio, SVG Export BotFramework-Brady.svg Page-1 -->
<svg xmlns="http://www.w3.org/2000/svg" xmlns:xlink="http://www.w3.org/1999/xlink" xmlns:ev="http://www.w3.org/2001/xml-events"
		xmlns:v="http://schemas.microsoft.com/visio/2003/SVGExtensions/" width="5.56476in" height="6.66029in"
		viewBox="0 0 400.662 479.541" xml:space="preserve" color-interpolation-filters="sRGB" class="st14">
	<v:documentProperties v:langID="1033" v:metric="true" v:viewMarkup="false"/>

	<style type="text/css">
	<![CDATA[
		.st1 {fill:#1c3157;stroke:none;stroke-width:3.35159}
		.st2 {fill:#a5a5a5;stroke:none;stroke-width:3.35159}
		.st3 {fill:#f69322;stroke:none;stroke-width:3.35159}
		.st4 {fill:#000000;stroke:none;stroke-width:3.35159}
		.st5 {fill:#41719c;stroke:none;stroke-width:3.35159}
		.st6 {fill:#030305;stroke:none;stroke-width:3.35159}
		.st7 {fill:#ffffff;stroke:none;stroke-width:3.35159}
		.st8 {stroke:#0070c0;stroke-dasharray:6.70318,13.4064;stroke-linecap:round;stroke-linejoin:round;stroke-width:6.70318}
		.st9 {fill:none}
		.st10 {stroke:#ffffff;stroke-linecap:round;stroke-linejoin:round;stroke-width:6.70318}
		.st11 {fill:#4672c4;stroke:none;stroke-width:3.35159}
		.st12 {fill:#0072c6;stroke:none;stroke-linecap:butt;stroke-width:0.749999}
		.st13 {stroke:#ffffff;stroke-linecap:butt;stroke-width:6.5}
		.st14 {fill:none;fill-rule:evenodd;font-size:12px;overflow:visible;stroke-linecap:square;stroke-miterlimit:3}
	]]>
	</style>

	<g v:mID="0" v:index="1" v:groupContext="foregroundPage">
		<title>Page-1</title>
		<v:pageProperties v:drawingScale="0.0393701" v:pageScale="0.0393701" v:drawingUnits="24" v:shadowOffsetX="9"
				v:shadowOffsetY="-9"/>
		<g id="group124-1" transform="translate(1.83689,-3.35159)" v:mID="124" v:groupContext="group">
			<title>Sheet.124</title>
			<g id="shape54-2" v:mID="54" v:groupContext="shape" transform="translate(16.1568,-104.262)">
				<title>Sheet.54</title>
				<path d="M205.24 270.26 C203.73 268.75 202.21 267.48 200.7 266.47 C209.79 279.35 208.52 297.02 196.91 308.38 L41.65
							 462.12 C35.34 468.43 27.01 471.46 18.68 471.46 C12.12 471.46 5.55 469.44 0 465.66 C1.01 467.17 2.27
							 468.69 3.53 469.95 C9.85 476.51 18.43 479.54 26.76 479.54 C35.09 479.54 43.42 476.51 49.73 470.2 L204.99
							 316.46 C217.86 303.58 218.12 282.88 205.24 270.26 Z" class="st1"/>
			</g>
			<g id="shape56-4" v:mID="56" v:groupContext="shape" transform="translate(32.8184,-49.7325)">
				<title>Sheet.56</title>
				<path d="M224.43 479.54 L213.07 416.18 L77.5 281.87 L32.31 237.44 C25.24 230.37 13.88 230.63 7.07 237.44 C0 244.51
							 0.25 255.87 7.07 262.69 L52 307.12 L187.57 441.42 L224.43 479.54 Z" class="st2"/>
			</g>
			<g id="shape57-6" v:mID="57" v:groupContext="shape" transform="translate(99.4651,-64.8795)">
				<title>Sheet.57</title>
				<path d="M145.16 456.57 L149.95 479.54 L0 330.09 L8.84 321.26 L145.16 456.57 Z" class="st3"/>
			</g>
			<g id="shape58-8" v:mID="58" v:groupContext="shape" transform="translate(45.4409,-260.78)">
				<title>Sheet.58</title>
				<path d="M1.01 473.99 L20.7 454.04 C21.46 453.29 23.23 453.54 24.49 455.05 C25.75 456.32 26.25 458.08 25.5 458.84
							 L5.81 478.78 C5.05 479.54 3.28 479.29 2.02 477.77 C0.5 476.51 0 474.74 1.01 473.99 Z" class="st4"/>
			</g>
			<g id="shape59-10" v:mID="59" v:groupContext="shape" transform="translate(54.0242,-252.197)">
				<title>Sheet.59</title>
				<path d="M0.76 473.99 L20.45 454.04 C21.21 453.29 22.97 453.54 24.24 455.05 C25.5 456.32 26 458.08 25.24 458.84 L5.55
							 478.78 C4.8 479.54 3.03 479.29 1.77 477.77 C0.5 476.51 0 474.74 0.76 473.99 Z" class="st4"/>
			</g>
			<g id="shape60-12" v:mID="60" v:groupContext="shape" transform="translate(62.6074,-243.866)">
				<title>Sheet.60</title>
				<path d="M0.76 473.99 L20.45 454.04 C21.21 453.29 22.97 453.54 24.24 455.05 C25.5 456.32 26 458.08 25.24 458.84 L5.55
							 478.78 C4.8 479.54 3.03 479.29 1.77 477.77 C0.25 476.51 0 474.74 0.76 473.99 Z" class="st4"/>
			</g>
			<g id="shape61-14" v:mID="61" v:groupContext="shape" transform="translate(70.9383,-235.535)">
				<title>Sheet.61</title>
				<path d="M1.01 473.99 L20.7 454.04 C21.46 453.29 23.23 453.54 24.49 455.05 C25.75 456.32 26.25 458.08 25.5 458.84
							 L5.81 478.78 C5.05 479.54 3.28 479.29 2.02 477.77 C0.76 476.26 0 475 1.01 473.99 Z" class="st4"/>
			</g>
			<g id="shape62-16" v:mID="62" v:groupContext="shape" transform="translate(79.5216,-226.952)">
				<title>Sheet.62</title>
				<path d="M0.76 473.99 L20.45 454.04 C21.21 453.29 22.97 453.54 24.24 455.05 C25.5 456.32 26 458.08 25.24 458.84 L5.55
							 478.78 C4.8 479.54 3.03 479.29 1.77 477.77 C0.5 476.51 0 474.74 0.76 473.99 Z" class="st4"/>
			</g>
			<g id="shape63-18" v:mID="63" v:groupContext="shape" transform="translate(103.252,-69.4236)">
				<title>Sheet.63</title>
				<path d="M173.18 424.76 C173.18 458.34 159.55 461.62 122.94 461.62 L66.14 461.62 C29.54 461.62 22.22 463.13 22.22
							 429.56 L1.01 322.52 C0.25 326.05 0 329.59 0 333.37 L22.22 445.97 C22.22 479.54 29.54 478.03 66.14 478.03
							 L122.94 478.03 C159.55 478.03 173.18 474.74 173.18 441.17 L189.34 333.37 C189.34 329.84 189.08 326.56
							 188.33 323.27 L173.18 424.76 Z" class="st1"/>
			</g>
			<g id="shape64-20" v:mID="64" v:groupContext="shape" transform="translate(227.204,-1.76215E-12)">
				<title>Sheet.64</title>
				<path d="M91.64 430.82 L44.43 248.04 C39.38 228.35 19.94 215.98 0 219.52 C14.64 222.04 27.01 232.9 31.05 248.04 L78.26
							 430.82 C83.56 451.52 71.19 472.98 50.24 478.28 C49.23 478.53 48.22 478.78 47.21 479.04 C49.48 479.54
							 51.75 479.54 54.02 479.54 C57.31 479.54 60.59 479.04 63.87 478.28 C84.57 472.98 96.94 451.77 91.64 430.82
							 Z" class="st1"/>
			</g>
			<g id="shape65-22" v:mID="65" v:groupContext="shape" transform="translate(190.852,-0.757348)">
				<title>Sheet.65</title>
				<path d="M114.61 431.58 L67.4 248.8 C63.36 233.66 50.99 222.8 36.35 220.28 C35.34 220.53 34.33 220.53 33.32 220.78
							 C12.62 226.08 0 247.29 5.3 268.24 L52.51 451.01 C56.55 466.16 68.92 477.02 83.56 479.54 C84.57 479.29
							 85.58 479.04 86.59 478.78 C107.29 473.73 119.91 452.53 114.61 431.58 Z" class="st5"/>
			</g>
			<g id="shape66-24" v:mID="66" v:groupContext="shape" transform="translate(111.33,6.82121E-13)">
				<title>Sheet.66</title>
				<path d="M63.87 220.02 C58.32 218.51 52.51 218.51 47.21 219.52 C48.22 219.77 48.98 219.77 49.98 220.02 C70.94 225.32
							 83.31 246.53 78.01 267.48 L30.8 450.26 C26.76 465.4 14.39 476.26 0 478.78 C2.27 479.29 4.8 479.54 7.07
							 479.54 C24.49 479.54 40.14 467.93 44.68 450.26 L91.89 267.48 C97.19 246.53 84.82 225.32 63.87 220.02
							 Z" class="st1"/>
			</g>
			<g id="shape67-26" v:mID="67" v:groupContext="shape" transform="translate(7.32103,-0.504899)">
				<title>Sheet.67</title>
				<path d="M218.87 203.61 L206.76 203.61 C217.36 192.25 218.37 175.09 209.53 162.72 C196.91 153.88 179.24 154.89 167.88
							 166.25 L12.62 319.99 C1.26 331.35 0 349.02 8.84 361.9 C14.39 365.94 20.95 367.71 27.52 367.71 C35.85
							 367.71 44.18 364.68 50.49 358.37 L106.28 303.33 L73.21 431.58 C67.91 452.28 80.28 473.73 101.23 479.04
							 C102.24 479.29 103 479.54 104.01 479.54 C118.4 477.02 130.77 466.16 134.81 451.01 L149.95 392.7 C153.49
							 392.7 157.78 392.7 162.07 392.7 L218.87 392.7 C255.48 392.7 269.11 389.42 269.11 355.84 L284.26 254.36
							 C278.96 225.58 251.69 203.61 218.87 203.61 Z" class="st5"/>
			</g>
			<g id="shape68-28" v:mID="68" v:groupContext="shape" transform="translate(172.675,-110.068)">
				<title>Sheet.68</title>
				<path d="M204.99 429.56 L49.73 275.81 C36.86 263.19 16.16 263.19 3.53 276.07 C2.27 277.33 1.01 278.84 0 280.36 C12.62
							 271.52 30.29 272.53 41.65 283.89 L196.91 437.63 C208.27 448.99 209.53 466.67 200.7 479.54 C202.21 478.53
							 203.73 477.27 205.24 475.75 C217.86 462.88 217.86 442.18 204.99 429.56 Z" class="st1"/>
			</g>
			<g id="shape69-30" v:mID="69" v:groupContext="shape" transform="translate(163.587,-104.514)">
				<title>Sheet.69</title>
				<path d="M206 432.08 L50.74 278.09 C39.38 266.73 21.71 265.72 9.09 274.55 C0 287.43 1.26 305.1 12.87 316.46 L168.13
							 470.2 C174.44 476.51 182.77 479.54 191.1 479.54 C197.67 479.54 204.23 477.52 209.79 473.73 C218.87 461.11
							 217.61 443.44 206 432.08 Z" class="st5"/>
			</g>
			<g id="shape72-32" v:mID="72" v:groupContext="shape" transform="translate(323.893,-120.166)">
				<title>Sheet.72</title>
				<path d="M45.19 457.83 L28.53 456.06 C16.41 454.8 5.3 461.87 0.76 472.47 C0.25 469.95 0 467.17 0.25 464.14 L0.25
							 463.13 C1.77 448.24 15.15 437.13 30.29 438.64 L46.96 440.41 C61.85 441.93 72.96 455.31 71.44 470.45
							 L71.44 471.46 C71.19 474.24 70.43 477.02 69.42 479.54 C66.9 468.18 57.31 459.09 45.19 457.83 Z"
						class="st1"/>
			</g>
			<g id="shape73-34" v:mID="73" v:groupContext="shape" transform="translate(324.65,-102.242)">
				<title>Sheet.73</title>
				<path d="M40.64 478.28 L23.98 476.51 C11.87 475.25 2.27 466.16 0 454.8 C4.54 444.2 15.65 437.13 27.77 438.39 L44.43
							 440.16 C56.55 441.42 66.14 450.51 68.41 461.87 C63.87 472.47 52.76 479.54 40.64 478.28 Z" class="st5"/>
			</g>
			<g id="shape75-36" v:mID="75" v:groupContext="shape" transform="translate(332.223,-81.5411)">
				<title>Sheet.75</title>
				<path d="M0 440.92 C0 440.41 0 439.91 0 439.4 C0.76 434.86 5.05 432.08 9.59 432.84 C14.14 433.6 16.91 437.89 16.16
							 442.43 C16.16 442.94 15.9 443.44 15.65 443.69 L15.65 443.95 C15.65 443.95 15.65 443.95 15.65 444.2 L1.26
							 479.54 L0 441.42 C0 441.17 0 441.17 0 440.92 Z" class="st6"/>
			</g>
			<g id="shape76-38" v:mID="76" v:groupContext="shape" transform="translate(348.885,-78.5118)">
				<title>Sheet.76</title>
				<path d="M0 440.92 C0 440.41 0 439.91 0 439.4 C0.76 434.86 5.05 432.08 9.59 432.84 C14.14 433.6 16.91 437.89 16.16
							 442.43 C16.16 442.94 15.9 443.44 15.65 443.69 L15.65 443.95 C15.65 443.95 15.65 443.95 15.65 444.2 L1.26
							 479.54 L0 441.42 C0 441.17 0 440.92 0 440.92 Z" class="st6"/>
			</g>
			<g id="shape77-40" v:mID="77" v:groupContext="shape" transform="translate(365.547,-75.7348)">
				<title>Sheet.77</title>
				<path d="M0 440.92 C0 440.41 0 439.91 0 439.4 C0.76 434.86 5.05 432.08 9.59 432.84 C14.14 433.6 16.91 437.89 16.16
							 442.43 C16.16 442.94 15.9 443.44 15.65 443.69 L15.65 443.95 C15.65 443.95 15.65 443.95 15.65 444.2 L1.26
							 479.54 L0 441.42 C0 441.42 0 441.17 0 440.92 Z" class="st6"/>
			</g>
			<g id="shape79-42" v:mID="79" v:groupContext="shape" transform="translate(4.55636E-13,-118.904)">
				<title>Sheet.79</title>
				<path d="M44.43 455.81 L27.77 457.58 C15.65 458.84 6.31 468.18 4.04 479.54 C3.03 477.02 2.27 474.49 1.77 471.46 L1.77
							 470.45 C0 455.56 10.86 441.93 26 440.16 L42.66 438.39 C57.56 436.62 71.19 447.48 72.96 462.63 L72.96
							 463.64 C73.21 466.41 73.21 469.19 72.71 471.97 C67.66 461.36 56.55 454.55 44.43 455.81 Z" class="st1"/>
			</g>
			<g id="shape80-44" v:mID="80" v:groupContext="shape" transform="translate(3.78674,-101.485)">
				<title>Sheet.80</title>
				<path d="M44.68 476.51 L28.02 478.28 C15.9 479.54 4.8 472.72 0 462.12 C2.27 450.76 11.61 441.42 23.73 440.16 L40.39
							 438.39 C52.51 437.13 63.62 443.95 68.41 454.55 C66.39 465.91 56.8 475.25 44.68 476.51 Z" class="st5"/>
			</g>
			<g id="shape82-46" v:mID="82" v:groupContext="shape" transform="translate(12.37,-79.2691)">
				<title>Sheet.82</title>
				<path d="M0.76 442.68 C0.5 442.18 0.5 441.67 0.5 441.17 C0 436.62 3.28 432.59 7.83 432.08 C12.37 431.58 16.41 434.86
							 16.91 439.4 C16.91 439.91 16.91 440.41 16.91 440.92 L16.91 441.17 C16.91 441.17 16.91 441.17 16.91 441.42
							 L13.13 479.54 L1.01 443.44 C0.76 442.94 0.76 442.94 0.76 442.68 Z" class="st6"/>
			</g>
			<g id="shape83-48" v:mID="83" v:groupContext="shape" transform="translate(29.0317,-81.0362)">
				<title>Sheet.83</title>
				<path d="M0.76 442.68 C0.5 442.18 0.5 441.67 0.5 441.17 C0 436.62 3.28 432.59 7.83 432.08 C12.37 431.58 16.41 434.86
							 16.91 439.4 C16.91 439.91 16.91 440.41 16.91 440.92 L16.91 441.17 C16.91 441.17 16.91 441.17 16.91 441.42
							 L13.13 479.54 L1.01 443.44 C0.76 442.94 0.76 442.68 0.76 442.68 Z" class="st6"/>
			</g>
			<g id="shape84-50" v:mID="84" v:groupContext="shape" transform="translate(45.9458,-83.3083)">
				<title>Sheet.84</title>
				<path d="M0.76 442.94 C0.5 442.43 0.5 441.93 0.5 441.42 C0 436.88 3.28 432.84 7.83 432.33 C12.37 431.83 16.41 435.11
							 16.91 439.65 C16.91 440.16 16.91 440.66 16.91 441.17 L16.91 441.42 C16.91 441.42 16.91 441.42 16.91
							 441.67 L12.87 479.54 L0.76 443.44 C0.76 443.19 0.76 443.19 0.76 442.94 Z" class="st6"/>
			</g>
			<g id="shape85-52" v:mID="85" v:groupContext="shape" transform="translate(121.681,-115.874)">
				<title>Sheet.85</title>
				<ellipse cx="73.7152" cy="400.777" rx="73.7152" ry="78.7642" class="st7"/>
			</g>
			<g id="shape88-54" v:mID="88" v:groupContext="shape" transform="translate(448.67,-127.364) rotate(43.5358)">
				<title>Sheet.88</title>
				<path d="M0 479.54 L98.95 479.54" class="st8"/>
			</g>
			<g id="shape89-57" v:mID="89" v:groupContext="shape" transform="translate(192.619,-188.327)">
				<title>Sheet.89</title>
				<path d="M0 479.54 L0.25 479.54 L0 479.54 Z" class="st9"/>
				<path d="M0 479.54 L0.25 479.54" class="st10"/>
			</g>
			<g id="shape90-60" v:mID="90" v:groupContext="shape" transform="translate(-140.914,-53.1744) rotate(-45)">
				<title>Sheet.90</title>
				<path d="M0 479.54 L96.21 479.54" class="st8"/>
			</g>
			<g id="shape92-63" v:mID="92" v:groupContext="shape" transform="translate(118.399,-235.535)">
				<title>Sheet.92</title>
				<path d="M80.53 447.73 C78.51 447.73 76.49 447.73 74.47 447.73 C72.45 447.73 70.43 447.73 68.41 447.73 C45.44 447.73
							 24.49 444.2 6.82 437.38 C4.29 439.15 2.02 441.17 0 443.19 C13.63 464.65 41.91 479.54 74.73 479.54 C109.06
							 479.54 138.34 463.38 151.22 440.16 C149.45 438.64 147.68 437.38 145.92 435.87 C126.98 443.69 105.02
							 447.73 80.53 447.73 Z" class="st1"/>
			</g>
			<g id="shape93-65" v:mID="93" v:groupContext="shape" transform="translate(184.793,-344.341)">
				<title>Sheet.93</title>
				<rect x="0" y="420.973" width="7.32103" height="58.5683" class="st11"/>
			</g>
			<g id="shape94-67" v:mID="94" v:groupContext="shape" transform="translate(61.3452,-252.449)">
				<title>Sheet.94</title>
				<path d="M127.23 259.15 C197.42 259.15 254.47 313.68 254.47 380.58 C254.47 447.48 203.73 479.54 133.29 479.54 C131.27
							 479.54 129.25 479.54 127.23 479.54 C125.21 479.54 123.2 479.54 121.18 479.54 C50.99 479.54 0 447.48
							 0 380.58 C0 313.68 56.8 259.15 127.23 259.15 Z" class="st5"/>
			</g>
			<g id="shape96-69" v:mID="96" v:groupContext="shape" transform="translate(84.823,-294.861)">
				<title>Sheet.96</title>
				<path d="M0 418.2 C0 402.29 7.07 387.9 18.18 377.55 C21.21 374.77 24.49 372.5 28.02 370.48 C34.08 367.2 41.15 365.18
							 48.22 364.42 C58.06 363.41 68.16 364.68 77.5 368.72 L87.6 373.01 C92.65 375.28 98.2 376.29 103.76 376.29
							 C109.31 376.29 114.86 375.03 119.91 373.01 L130.01 368.72 C139.35 364.68 149.45 363.41 159.3 364.42
							 C166.36 365.18 173.18 367.2 179.49 370.48 C183.03 372.5 186.31 374.77 189.34 377.55 C200.44 387.9 207.51
							 402.29 207.51 418.2 C207.51 418.2 207.51 418.45 207.51 418.45 C207.51 418.45 207.51 418.7 207.51 418.7
							 C207.51 426.78 206.25 434.1 203.98 440.41 C192.87 473.48 155.51 479.54 107.04 479.29 C106.03 479.29
							 104.77 479.29 103.76 479.29 C102.75 479.29 101.48 479.29 100.47 479.29 C52 479.54 14.64 473.48 3.53
							 440.41 C1.26 434.1 0 426.78 0 418.7 C0 418.7 0 418.45 0 418.45 C0 418.45 0 418.45 0 418.2 Z"
						class="st7"/>
			</g>
			<g id="shape97-71" v:mID="97" v:groupContext="shape" transform="translate(93.4063,-332.981)">
				<title>Sheet.97</title>
				<path d="M33.83 414.16 C34.33 413.9 34.84 413.9 35.34 413.9 C42.16 412.39 49.73 414.66 54.78 419.46 C61.09 425.26
							 62.61 433.85 60.08 441.67 C58.82 445.71 56.04 449.5 52.26 451.52 C49.48 453.03 46.2 453.79 42.92 454.04
							 C36.86 454.55 30.55 454.3 24.49 455.31 C18.68 456.32 12.87 458.59 8.08 462.12 C2.02 466.67 1.26 479.54
							 1.26 479.54 C1.01 478.03 0.76 476.01 0.5 474.49 C0 470.2 0 466.16 0 461.87 C1.01 443.69 9.34 427.03
							 25.24 417.69 C28.02 416.43 30.8 414.91 33.83 414.16 Z" class="st5"/>
			</g>
			<g id="shape98-73" v:mID="98" v:groupContext="shape" transform="translate(125.467,-365.042)">
				<title>Sheet.98</title>
				<path d="M10.6 479.54 C16.41 479.54 20.95 474.74 20.95 468.94 L20.7 462.88 C20.7 457.07 16.16 452.28 10.35 452.28
							 C4.54 452.28 0 457.07 0 462.88 L0.25 468.94 C0.25 474.49 5.05 479.54 10.6 479.54 Z" class="st7"/>
			</g>
			<g id="shape99-75" v:mID="99" v:groupContext="shape" transform="translate(128.497,-370.091)">
				<title>Sheet.99</title>
				<ellipse cx="7.82593" cy="471.715" rx="7.82593" ry="7.82593" class="st6"/>
			</g>
			<g id="shape100-77" v:mID="100" v:groupContext="shape" transform="translate(221.146,-332.981)">
				<title>Sheet.100</title>
				<path d="M28.78 414.16 C28.27 413.9 27.77 413.9 27.26 413.9 C20.45 412.39 12.87 414.66 7.83 419.46 C1.51 425.26 0
							 433.85 2.52 441.67 C3.79 445.71 6.56 449.5 10.35 451.52 C13.13 453.03 16.41 453.79 19.69 454.04 C25.75
							 454.55 32.06 454.3 38.12 455.31 C43.93 456.32 49.73 458.59 54.53 462.12 C60.59 466.67 61.35 479.54 61.35
							 479.54 C61.6 478.03 61.85 476.01 62.1 474.49 C62.61 470.2 62.61 466.16 62.61 461.87 C61.6 443.69 53.27
							 427.03 37.36 417.69 C34.59 416.43 31.81 414.91 28.78 414.16 Z" class="st5"/>
			</g>
			<g id="shape101-79" v:mID="101" v:groupContext="shape" transform="translate(230.739,-365.042)">
				<title>Sheet.101</title>
				<path d="M10.35 479.54 C4.54 479.54 0 474.74 0 468.94 L0.25 462.88 C0.25 457.07 4.8 452.28 10.6 452.28 C16.41 452.28
							 20.95 457.07 20.95 462.88 L20.7 468.94 C20.7 474.49 15.9 479.54 10.35 479.54 Z" class="st7"/>
			</g>
			<g id="shape102-81" v:mID="102" v:groupContext="shape" transform="translate(233.011,-370.091)">
				<title>Sheet.102</title>
				<ellipse cx="7.82593" cy="471.715" rx="7.82593" ry="7.82593" class="st6"/>
			</g>
			<g id="shape103-83" v:mID="103" v:groupContext="shape" transform="translate(184.793,-342.069)">
				<title>Sheet.103</title>
				<rect x="0" y="423.245" width="7.57348" height="56.2962" class="st5"/>
			</g>
			<g id="shape104-85" v:mID="104" v:groupContext="shape" transform="translate(227.204,-381.703)">
				<title>Sheet.104</title>
				<path d="M0 479.54 L29.79 476.26 C29.79 476.26 19.94 465.4 12.37 465.4 C4.54 465.4 0 479.54 0 479.54 Z" class="st6"/>
			</g>
			<g id="shape105-87" v:mID="105" v:groupContext="shape" transform="translate(124.458,-380.694)">
				<title>Sheet.105</title>
				<path d="M0 476.76 L24.99 479.54 C24.99 479.54 18.93 465.15 11.11 465.15 C3.28 465.15 0 476.76 0 476.76 Z"
						class="st6"/>
			</g>
			<g id="shape106-89" v:mID="106" v:groupContext="shape" transform="translate(131.779,-378.927)">
				<title>Sheet.106</title>
				<ellipse cx="1.26225" cy="478.279" rx="1.26225" ry="1.26225" class="st7"/>
			</g>
			<g id="shape107-91" v:mID="107" v:groupContext="shape" transform="translate(235.788,-378.927)">
				<title>Sheet.107</title>
				<ellipse cx="1.26225" cy="478.279" rx="1.26225" ry="1.26225" class="st7"/>
			</g>
			<g id="shape108-93" v:mID="108" v:groupContext="shape" transform="translate(159.296,-356.206)">
				<title>Sheet.108</title>
				<path d="M16.41 446.72 L29.28 446.72 L42.16 446.72 C50.99 446.47 58.32 453.79 58.32 462.88 C58.57 471.97 51.5 479.54
							 42.66 479.54 L41.15 479.54 C40.9 479.54 40.64 479.54 40.64 479.54 L29.28 479.54 L17.92 479.54 C17.67
							 479.54 17.42 479.54 17.42 479.54 L15.9 479.54 C7.07 479.29 0 471.71 0.25 462.63 C0.5 453.79 7.57 446.47
							 16.41 446.72 Z" class="st6"/>
			</g>
			<g id="shape109-95" v:mID="109" v:groupContext="shape" transform="translate(141.119,-339.04)">
				<title>Sheet.109</title>
				<path d="M3.53 471.46 C2.27 470.96 1.26 470.2 0.25 469.44 C0.25 469.44 0 469.44 0 469.19 L47.46 469.95 L94.67 470.45
							 C94.67 470.45 94.42 470.45 94.42 470.71 C93.41 471.46 92.4 471.97 91.13 472.47 C91.13 472.47 91.13 472.47
							 91.13 472.47 C89.87 472.98 88.61 473.48 87.35 473.99 C87.1 473.99 87.1 474.24 86.84 474.24 C85.58 474.74
							 84.32 475 82.8 475.5 C82.55 475.5 82.05 475.75 81.79 475.75 C80.53 476.01 79.02 476.51 77.75 476.76
							 C77.25 477.02 76.74 477.02 75.99 477.27 C74.73 477.52 73.21 477.77 71.95 478.03 C71.19 478.03 70.43
							 478.28 69.68 478.28 C68.41 478.53 66.9 478.53 65.64 478.78 C64.63 478.78 63.87 479.04 62.86 479.04 C61.6
							 479.04 60.08 479.29 58.82 479.29 C57.81 479.29 56.55 479.54 55.54 479.54 C54.28 479.54 52.76 479.54
							 51.5 479.54 C50.24 479.54 49.23 479.54 47.97 479.54 C47.97 479.54 47.71 479.54 47.71 479.54 C47.71 479.54
							 47.46 479.54 47.46 479.54 C46.2 479.54 45.19 479.54 43.93 479.29 C42.66 479.29 41.15 479.29 39.89 479.04
							 C38.88 479.04 37.61 478.78 36.61 478.78 C35.34 478.78 33.83 478.53 32.57 478.53 C31.56 478.53 30.55
							 478.28 29.79 478.28 C28.53 478.03 27.01 478.03 25.75 477.77 C24.49 477.52 23.73 477.52 22.97 477.27
							 C21.71 477.02 20.2 476.76 18.93 476.51 C18.43 476.26 17.67 476.26 17.17 476.01 C15.9 475.75 14.39 475.25
							 13.13 475 C12.62 475 12.37 474.74 12.12 474.74 C10.6 474.24 9.34 473.99 8.08 473.48 C7.83 473.48 7.83
							 473.23 7.57 473.23 C6.06 472.72 4.8 471.97 3.53 471.46 C3.53 471.46 3.53 471.46 3.53 471.46 Z"
						class="st6"/>
			</g>
			<g id="shape112-97" v:mID="112" v:groupContext="shape" transform="translate(1.5147,-419.571)">
				<title>Sheet.112</title>
				<path d="M0 464.9 C0 464.9 58.82 429.05 77.5 441.67 C96.18 454.3 111.58 468.94 87.1 474.24 C62.61 479.54 0 464.9
							 0 464.9 Z" class="st1"/>
			</g>
			<g id="shape113-99" v:mID="113" v:groupContext="shape" transform="translate(4.03919,-391.297)">
				<title>Sheet.113</title>
				<path d="M0 479.54 C0 479.54 41.4 445.71 61.09 447.98 C80.78 450.26 80.78 450.26 80.78 450.26 C80.78 450.26 81.54
							 479.29 61.85 477.27 C42.16 475 0 479.54 0 479.54 Z" class="st1"/>
			</g>
			<g id="shape114-101" v:mID="114" v:groupContext="shape" transform="translate(69.1711,-393.569)">
				<title>Sheet.114</title>
				<path d="M204.23 431.07 L34.59 431.07 C19.44 444.2 7.32 460.86 0 479.54 L238.56 479.54 C231.5 460.86 219.38 444.2
							 204.23 431.07 Z" class="st1"/>
			</g>
			<g id="group117-103" transform="translate(153.214,-134.996)" v:mID="117" v:groupContext="group">
				<title>Bot Framework</title>
				<g id="group118-104" v:mID="118" v:groupContext="group">
					<title>svg4147</title>
					<g id="shape119-105" v:mID="119" v:groupContext="shape" transform="translate(26.4228,-23.2514)">
						<title>path4759</title>
						<path d="M3.12 478.53 C2.05 478.15 1.39 477.54 0.89 476.45 C0 474.5 0.49 472.71 2.28 471.37 C2.95 470.87
									 4.77 470.7 5.82 471.06 C6.82 471.38 7.89 472.56 8.19 473.66 C8.99 476.63 5.96 479.54 3.12 478.53
									 Z" class="st12"/>
					</g>
					<g id="shape120-107" v:mID="120" v:groupContext="shape" transform="translate(42.9518,-23.8864)">
						<title>path4761</title>
						<path d="M3.02 479.04 C0.86 478.05 0 475.67 1.06 473.55 C1.67 472.33 2.64 471.65 3.93 471.52 C5.39 471.39
									 6.25 471.63 7.11 472.4 C9.25 474.32 8.83 477.62 6.29 478.89 C5.06 479.5 4.15 479.54 3.02 479.04
									 Z" class="st12"/>
					</g>
					<g id="shape121-109" v:mID="121" v:groupContext="shape">
						<title>path4765</title>
						<path d="M18.65 471.56 C11.64 464.48 2.79 455.28 0.88 453.07 C0.04 452.1 0 451.1 0.75 450.13 C2.5 447.85
									 26.31 423.6 26.79 423.61 C27.14 423.61 29.55 425.91 30.35 426.99 L31.07 427.98 L29.31 429.9
									 C28.35 430.95 24.39 435.03 20.52 438.96 C11.57 448.04 8.63 451.15 8.63 451.52 C8.63 451.95 11.12
									 454.6 19.97 463.59 C24.29 467.98 28.55 472.39 29.44 473.37 C30.9 475 31.02 475.2 30.8 475.6
									 C30.52 476.12 27.53 479.06 26.98 479.36 C26.64 479.54 25.67 478.63 18.65 471.56 Z"
								class="st12"/>
					</g>
					<g id="shape122-111" v:mID="122" v:groupContext="shape" transform="translate(47.3847,-0.228356)">
						<title>path4138</title>
						<path d="M3.25 478.98 C2.23 478.24 0 475.84 0 475.48 C0 475.07 3.49 471.36 12.55 462.14 C16.98 457.64 21.02
									 453.46 21.53 452.87 L22.45 451.79 L21.48 450.66 C20.95 450.04 16.54 445.46 11.68 440.5 C1.87
									 430.47 0 428.49 0 428.12 C0 427.64 3.6 423.84 4.06 423.84 C4.54 423.84 28.34 447.87 29.85 449.88
									 C31.08 451.5 31.04 451.96 29.56 453.81 C27.3 456.61 4.77 479.54 4.28 479.54 C4.14 479.54 3.68
									 479.29 3.25 478.98 Z" class="st12"/>
					</g>
				</g>
			</g>
			<g id="shape123-113" v:mID="123" v:groupContext="shape" transform="translate(-224.813,-116.536) rotate(-45)">
				<title>Sheet.123</title>
				<path d="M0 479.54 L7.55 479.54" class="st13"/>
			</g>
		</g>
	</g>
</svg>
