<?xml version="1.0" encoding="utf-8"?>
<!-- Generator: Adobe Illustrator 22.0.1, SVG Export Plug-In . SVG Version: 6.00 Build 0)  -->
<svg version="1.1" id="Layer_1" xmlns="http://www.w3.org/2000/svg" xmlns:xlink="http://www.w3.org/1999/xlink" x="0px" y="0px"
	 viewBox="0 0 182.6 222.9" style="enable-background:new 0 0 182.6 222.9;" xml:space="preserve">
<style type="text/css">
	.st0{fill:url(#SVGID_1_);}
	.st1{fill:url(#SVGID_2_);}
	.st2{fill:url(#SVGID_3_);}
	.st3{fill:url(#SVGID_4_);}
	.st4{fill:url(#SVGID_5_);}
	.st5{fill:#1D5F91;}
	.st6{fill:#F69220;}
	.st7{fill:#29A7DE;}
	.st8{fill:#2A5D7A;}
	.st9{fill:#000002;}
	.st10{fill:#D4D3D3;}
	.st11{fill:none;stroke:#231F20;stroke-width:1.63;stroke-linecap:round;stroke-linejoin:round;}
	
		.st12{fill:none;stroke:#231F20;stroke-width:1.63;stroke-linecap:round;stroke-linejoin:round;stroke-dasharray:8.000000e-02,2.45;}
	
		.st13{fill:none;stroke:#231F20;stroke-width:1.63;stroke-linecap:round;stroke-linejoin:round;stroke-dasharray:8.000000e-02,2.49;}
	.st14{fill:#FFFFFF;}
	.st15{fill:#231F20;}
	.st16{fill:#2D2D2D;}
</style>
<g>
	
		<linearGradient id="SVGID_1_" gradientUnits="userSpaceOnUse" x1="-427.667" y1="2.1044" x2="-427.6607" y2="2.1044" gradientTransform="matrix(1538 0 0 -576.75 657836 1354.5)">
		<stop  offset="0" style="stop-color:#4F4F4F"/>
		<stop  offset="1" style="stop-color:#000000"/>
	</linearGradient>
	<path class="st0" d="M84.2,140.2v1.2c0,0.2,4.4,0.5,7.3,1.2c1.4-0.3,2.4-0.7,2.4-1.2v-1.2c0-0.5-1-0.9-2.4-1.2
		C88.7,139.7,84.2,140,84.2,140.2"/>
	
		<linearGradient id="SVGID_2_" gradientUnits="userSpaceOnUse" x1="-427.667" y1="0.7794" x2="-427.6607" y2="0.7794" gradientTransform="matrix(1538 0 0 -576.75 657836 585.5)">
		<stop  offset="0" style="stop-color:#4F4F4F"/>
		<stop  offset="1" style="stop-color:#000000"/>
	</linearGradient>
	<path class="st1" d="M84.2,135.4v1.2c0,0.2,4.4,0.5,7.3,1.2c1.4-0.3,2.4-0.7,2.4-1.2v-1.2c0-0.5-1-0.9-2.4-1.2
		C88.7,134.8,84.2,135.2,84.2,135.4"/>
	
		<linearGradient id="SVGID_3_" gradientUnits="userSpaceOnUse" x1="-427.667" y1="1.0651" x2="-427.6607" y2="1.0651" gradientTransform="matrix(1538 0 0 -961.25 657836 1162.25)">
		<stop  offset="0" style="stop-color:#C40000"/>
		<stop  offset="1" style="stop-color:#FF0000"/>
	</linearGradient>
	<path class="st2" d="M84.2,137.8v3.6c0-0.3,9.7-0.9,9.7-2.4v-3.6C94,136.9,84.2,137.5,84.2,137.8"/>
	
		<linearGradient id="SVGID_4_" gradientUnits="userSpaceOnUse" x1="-427.667" y1="0.2702" x2="-427.6607" y2="0.2702" gradientTransform="matrix(1538 0 0 -961.25 657836 393.25)">
		<stop  offset="0" style="stop-color:#C40000"/>
		<stop  offset="1" style="stop-color:#FF0000"/>
	</linearGradient>
	<path class="st3" d="M84.2,132.9v3.6c0-0.3,9.7-0.9,9.7-2.4v-3.6C94,132,84.2,132.6,84.2,132.9"/>
	
		<linearGradient id="SVGID_5_" gradientUnits="userSpaceOnUse" x1="-427.667" y1="1.8601" x2="-427.6607" y2="1.8601" gradientTransform="matrix(1538 0 0 -961.25 657836 1931.25)">
		<stop  offset="0" style="stop-color:#C40000"/>
		<stop  offset="1" style="stop-color:#FF0000"/>
	</linearGradient>
	<path class="st4" d="M84.2,142.6v3.6c0-0.3,9.7-0.9,9.7-2.4v-3.6C94,141.7,84.2,142.3,84.2,142.6"/>
</g>
<g>
	<path class="st5" d="M100.5,80.8c-0.5-0.5-1.1-1.1-1.8-1.5c3.6,5.2,3,12.3-1.5,16.6l-61.6,60.9c-4.5,4.4-11.3,5-16.5,1.4
		c0.4,0.6,0.9,1.1,1.4,1.7c5,5.1,13.1,5.1,18.2,0.1l61.5-60.9C105.3,94.2,105.3,86,100.5,80.8C100.6,81,100.6,80.9,100.5,80.8z"/>
	<path d="M114.7,185.5l-4.5-25.1l-53.8-53.2l0,0L38.6,89.5c-2.8-2.8-7.3-2.8-10,0c-2.8,2.7-2.8,7.2-0.1,9.9l0.1,0.1l17.9,17.7l0,0
		l53.7,53.2L114.7,185.5z"/>
	<polygon class="st6" points="109.6,170.3 111.6,179.4 52.2,120.3 55.6,116.7 	"/>
	<path class="st6" d="M31.2,99.7l7.8-7.9c0.3-0.4,1-0.2,1.6,0.4c0.5,0.5,0.7,1.2,0.3,1.6l-7.8,7.9c-0.3,0.4-1,0.2-1.6-0.4
		S30.8,99.9,31.2,99.7z"/>
	<path class="st6" d="M34.5,103l7.9-7.9c0.3-0.4,1-0.2,1.6,0.4c0.5,0.5,0.7,1.2,0.3,1.6l-7.8,7.9c-0.3,0.4-1,0.2-1.6-0.4
		S34.2,103.3,34.5,103z"/>
	<path class="st6" d="M37.8,106.3l7.8-7.9c0.3-0.4,1-0.2,1.6,0.4c0.5,0.5,0.7,1.2,0.3,1.6l-7.8,7.9c-0.3,0.4-1,0.2-1.6-0.4
		S37.6,106.7,37.8,106.3z"/>
	<path class="st6" d="M41.2,109.7l7.9-7.9c0.3-0.4,1-0.2,1.6,0.4c0.5,0.5,0.7,1.2,0.3,1.6l-7.8,7.9c-0.3,0.4-1,0.2-1.6-0.4
		S40.9,110,41.2,109.7z"/>
	<path class="st6" d="M44.7,113l7.8-7.9c0.3-0.4,1-0.2,1.6,0.4c0.5,0.5,0.7,1.2,0.3,1.6l-7.9,7.9c-0.3,0.4-1,0.2-1.6-0.4
		S44.3,113.3,44.7,113z"/>
	<path class="st5" d="M122.2,155.9c0,13.3-5.4,14.6-19.9,14.6H79.8c-14.5,0-17.4,0.6-17.4-12.7l-8.4-42.4c-0.3,1.4-0.4,2.9-0.4,4.3
		l8.8,44.6c0,13.3,2.9,12.7,17.4,12.7h22.5c14.5,0,19.9-1.3,19.9-14.6l6.4-42.7c0-1.3-0.1-2.7-0.3-4L122.2,155.9z"/>
	<path class="st5" d="M139.1,185.8l-18.7-72.4c-2.1-7.8-9.7-12.8-17.5-11.3c5.9,1.1,10.7,5.4,12.3,11.3l18.7,72.4
		c2.1,8.2-2.9,16.6-11,18.7h-0.1c-0.4,0.1-0.8,0.2-1.2,0.3c0.9,0.2,1.7,0.3,2.7,0.3c1.3,0,2.6-0.2,3.9-0.5
		c8.1-2,13.1-10.4,11.2-18.7C139.1,185.9,139.1,185.9,139.1,185.8z"/>
	<path class="st7" d="M133.7,185.8L115,113.4c-1.6-5.9-6.3-10.3-12.3-11.3c-0.4,0.1-0.8,0.2-1.2,0.3c-8.1,2-13.1,10.4-11.2,18.7
		c0,0.1,0,0.1,0,0.2l18.7,72.4c1.6,5.9,6.3,10.3,12.3,11.3c0.4-0.1,0.8-0.2,1.2-0.3c8.1-2,13.1-10.4,11.2-18.7
		C133.7,185.9,133.7,185.9,133.7,185.8z"/>
	<path class="st5" d="M82.2,102.3c-2.2-0.5-4.4-0.6-6.7-0.3c0.3,0.1,0.8,0.1,1.1,0.3c8.1,2,13.1,10.4,11.2,18.7v0.1l-18.7,72.4
		c-1.6,5.9-6.3,10.2-12.2,11.3c1,0.2,1.8,0.3,2.8,0.3c7,0,13.1-4.7,15-11.6L93.3,121c2.1-8.2-2.9-16.6-11-18.7
		C82.3,102.3,82.2,102.3,82.2,102.3z"/>
	<path class="st7" d="M102.3,95.6h-4.8c4.1-4.5,4.7-11.2,1.1-16.3c-5.1-3.6-12-3-16.5,1.4l-61.5,60.9c-4.5,4.4-5.1,11.5-1.5,16.6
		c5.1,3.6,12,3,16.5-1.4l22-21.8l-13.1,50.8c-2.1,8.2,2.9,16.6,11,18.7h0.1c0.3,0.1,0.7,0.2,1.1,0.3c5.9-1.1,10.6-5.4,12.2-11.3
		l6-23.1c1.5,0,3,0,4.8,0h22.5c14.5,0,19.9-1.3,19.9-14.6l6-40.2C126.1,104.3,115.4,95.6,102.3,95.6z"/>
	<path class="st5" d="M162.3,141.7l-61.5-60.9c-5.1-5-13.2-5-18.3,0.1c-0.5,0.5-1,1.1-1.4,1.7c5.1-3.6,12-3,16.5,1.4l61.5,60.9
		c4.5,4.4,5.1,11.5,1.5,16.6c0.6-0.4,1.2-1,1.8-1.5c4.9-5,5-13.1,0.1-18.1C162.5,141.8,162.4,141.8,162.3,141.7z"/>
	<path class="st7" d="M159.1,144.9L97.6,84c-4.5-4.4-11.3-5-16.5-1.4c-3.6,5.2-3,12.3,1.5,16.6l61.5,60.9c4.5,4.4,11.3,5,16.5,1.4
		C164.2,156.3,163.6,149.3,159.1,144.9z"/>
	<path class="st8" d="M158.9,149l-6.6-0.7c-4.7-0.4-9.2,2.2-11.1,6.6c-0.3-1.1-0.3-2.2-0.2-3.2l0.1-0.4c0.7-6,6-10.3,11.8-9.7
		l6.6,0.7c5.9,0.6,10.2,5.9,9.7,11.8l-0.1,0.4c-0.1,1.1-0.3,2.2-0.8,3.2C167.5,152.9,163.6,149.4,158.9,149z"/>
	<path class="st7" d="M157.4,164.1l-6.6-0.7c-4.7-0.4-8.6-3.9-9.5-8.6c1.9-4.4,6.4-7,11.1-6.5l6.6,0.7c4.7,0.4,8.6,3.9,9.5,8.6
		C166.5,161.9,162.1,164.6,157.4,164.1z"/>
	<path class="st9" d="M144.3,157.6L144.3,157.6c0-0.2,0-0.4,0.1-0.5c0.3-1.8,2-3,3.8-2.6c1.7,0.3,2.9,1.9,2.7,3.7
		c0,0.3-0.1,0.4-0.2,0.6l0,0v0.1v0.1l-5.7,14l-0.5-15.1C144.4,157.6,144.4,157.6,144.3,157.6L144.3,157.6z"/>
	<path class="st9" d="M151,158.7L151,158.7c0-0.2,0-0.4,0.1-0.5c0.3-1.8,2-3,3.8-2.6c1.7,0.3,2.9,1.9,2.7,3.7c0,0.3-0.1,0.4-0.2,0.6
		l0,0v0.1v0.1l-5.7,14l-0.6-15.1C151,158.8,151,158.8,151,158.7L151,158.7z"/>
	<path class="st9" d="M157.6,159.8L157.6,159.8c0-0.2,0-0.4,0.1-0.5c0.3-1.8,2-3,3.8-2.6c1.7,0.3,2.9,1.9,2.7,3.7
		c0,0.3-0.1,0.4-0.2,0.6l0,0v0.1v0.1l-5.7,14l-0.5-15.1C157.6,159.9,157.6,159.9,157.6,159.8L157.6,159.8z"/>
	<path class="st5" d="M30.3,148.6l-6.6,0.7c-4.7,0.5-8.5,4-9.4,8.7c-0.4-1-0.8-2.1-0.9-3.2l-0.1-0.4c-0.6-6,3.7-11.3,9.6-12l0,0
		l6.6-0.7c5.9-0.6,11.2,3.6,11.9,9.5l0.1,0.4c0.1,1.1,0.1,2.2-0.2,3.2C39.5,150.7,35,148.1,30.3,148.6z"/>
	<path class="st7" d="M32,163.8l-6.6,0.7c-4.7,0.5-9.2-2.1-11.1-6.4c1-4.6,4.8-8.1,9.4-8.7l6.6-0.7c4.7-0.5,9.2,2.1,11.1,6.4
		C40.5,159.7,36.7,163.2,32,163.8z"/>
	<path class="st9" d="M17.9,159.1L17.9,159.1c-0.1-0.2-0.1-0.4-0.1-0.5c-0.2-1.8,1.1-3.4,2.9-3.7c1.7-0.3,3.4,1.1,3.6,2.9
		c0,0.2,0,0.4,0,0.5l0,0v0.1l-1.6,15.1L17.9,159.1L17.9,159.1L17.9,159.1z"/>
	<path class="st9" d="M24.6,158.3L24.6,158.3c-0.1-0.2-0.1-0.4-0.1-0.5c-0.2-1.8,1.1-3.4,2.9-3.7c1.8-0.2,3.4,1.1,3.6,2.9
		c0,0.2,0,0.4,0,0.5l0,0v0.1l-1.6,15.1L24.6,158.3L24.6,158.3L24.6,158.3z"/>
	<path class="st9" d="M31.3,157.6L31.3,157.6c-0.1-0.2-0.1-0.4-0.1-0.5c-0.2-1.8,1.1-3.4,2.9-3.7c1.8-0.2,3.4,1.1,3.6,2.9
		c0,0.2,0,0.4,0,0.5l0,0v0.1L36.1,172L31.3,157.6L31.3,157.6L31.3,157.6z"/>
	<ellipse class="st10" cx="90.2" cy="128" rx="29.2" ry="31.3"/>
	<line class="st11" x1="61.1" y1="102.5" x2="61.1" y2="102.5"/>
	<line class="st12" x1="62.6" y1="104.1" x2="88.4" y2="129.8"/>
	<polyline class="st11" points="89.1,130.5 89.2,130.6 89.2,130.5 	"/>
	<line class="st13" x1="90.7" y1="129" x2="118.5" y2="101.2"/>
	<line class="st11" x1="119.2" y1="100.5" x2="119.3" y2="100.5"/>
	<path class="st5" d="M91.5,99.1c-0.8,0-1.6,0-2.4,0s-1.6,0-2.4,0c-9.2,0-17.4-1.4-24.5-4.1c-1,0.7-1.9,1.5-2.7,2.4
		c5.4,8.5,16.6,14.4,29.6,14.4c13.6,0,25.2-6.4,30.3-15.6c-0.7-0.6-1.4-1.1-2.2-1.7C109.9,97.7,101.2,99.1,91.5,99.1z"/>
	<rect x="86" y="45.6" width="2.9" height="23.2"/>
	<path class="st7" d="M87.4,17.8c27.8,0,50.4,21.5,50.4,48.2s-20.1,39.2-48,39.2c-0.8,0-1.6,0-2.4,0s-1.6,0-2.4,0
		c-27.8,0-48-12.6-48-39.2S59.6,17.8,87.4,17.8z"/>
	<path class="st10" d="M46.4,64c0-6.1,2.7-12,7.2-16.1c1.2-1.1,2.5-2,3.9-2.8c2.5-1.3,5.2-2.1,8-2.5c4-0.4,8,0.1,11.6,1.7l4,1.8
		c4.1,1.8,8.7,1.8,12.9,0l4-1.8c3.6-1.6,7.6-2.1,11.6-1.7c2.8,0.3,5.4,1.1,8,2.5c1.4,0.8,2.8,1.8,3.9,2.8c4.5,4.1,7.2,10,7.2,16.1
		c0,0.1,0,0.1,0,0.2c0,0.1,0,0.1,0,0.1c0,2.9-0.4,5.9-1.4,8.6c-4.4,13.1-19.2,15.5-38.4,15.4h-1.3h-1.3c-19.2,0.1-34-2.4-38.4-15.4
		c-1-2.7-1.5-5.7-1.4-8.6v-0.1C46.3,64.2,46.4,64.1,46.4,64z"/>
	<path class="st7" d="M63.2,47.3l0.6-0.2c2.8-0.5,5.6,0.3,7.7,2.2c2.4,2.3,3.2,5.8,2.1,8.8c-0.5,1.7-1.6,3-3.1,3.9
		c-1.1,0.6-2.4,0.9-3.6,1c-2.4,0.3-4.9,0.1-7.3,0.5c-2.3,0.4-4.6,1.3-6.5,2.7c-2.4,1.8-2.7,6.9-2.7,6.9c-0.1-0.6-0.3-1.4-0.3-1.9
		c-0.2-1.7-0.3-3.3-0.2-5c0.3-7.2,3.6-13.8,10-17.5C60.8,48.2,61.9,47.7,63.2,47.3z"/>
	<path class="st14" d="M66.7,60.4L66.7,60.4c2.2,0,4.1-1.9,4.1-4.2l-0.1-2.4c0-2.3-1.8-4.2-4.1-4.2l0,0c-2.2,0-4.1,1.9-4.1,4.2
		l0.1,2.4C62.5,58.5,64.4,60.4,66.7,60.4z"/>
	
		<ellipse transform="matrix(8.029933e-02 -0.9968 0.9968 8.029933e-02 6.192 117.4921)" class="st9" cx="66.8" cy="55.4" rx="3.1" ry="3.1"/>
	<path class="st7" d="M111.7,47.3l-0.6-0.2c-2.8-0.5-5.6,0.3-7.7,2.2c-2.4,2.3-3.2,5.8-2.1,8.8c0.5,1.7,1.6,3,3.1,3.9
		c1.1,0.6,2.4,0.9,3.6,1c2.4,0.3,4.9,0.1,7.3,0.5c2.3,0.4,4.6,1.3,6.5,2.7c2.4,1.8,2.7,6.9,2.7,6.9c0.1-0.6,0.3-1.4,0.3-1.9
		c0.2-1.7,0.3-3.3,0.2-5c-0.3-7.2-3.6-13.8-10-17.5C114.1,48.2,112.9,47.7,111.7,47.3z"/>
	<path class="st14" d="M108.2,60.4L108.2,60.4c-2.2,0-4.1-1.9-4.1-4.2l0.1-2.4c0-2.3,1.8-4.2,4.1-4.2l0,0c2.2,0,4.1,1.9,4.1,4.2
		l-0.1,2.4C112.3,58.5,110.5,60.4,108.2,60.4z"/>
	
		<ellipse transform="matrix(0.9968 -8.033246e-02 8.033246e-02 0.9968 -4.0981 8.8631)" class="st9" cx="108.1" cy="55.4" rx="3.1" ry="3.1"/>
	<rect x="86" y="47.3" class="st7" width="3" height="22.3"/>
	<path class="st9" d="M102.7,53.9l11.8-1.3c0,0-3.9-4.3-6.9-4.3S102.7,53.9,102.7,53.9z"/>
	<path class="st9" d="M62,53.2l9.9,1.1c0,0-2.4-5.7-5.4-5.7C63.5,48.5,62,53.2,62,53.2z"/>
	<ellipse class="st14" cx="65.5" cy="54.5" rx="0.5" ry="0.5"/>
	<ellipse class="st14" cx="106.6" cy="54.5" rx="0.5" ry="0.5"/>
	<path class="st9" d="M82.3,51h10.1c3.5,0,6.4,3,6.4,6.6c0,3.4-2.7,6.3-6.1,6.5h-0.6c-0.1,0-0.2,0-0.3,0h-8.9c-0.1,0-0.2,0-0.3,0
		h-0.6c-3.5-0.2-6.3-3.2-6.1-6.8C76.2,53.8,79,51.1,82.3,51L82.3,51z"/>
	<path class="st9" d="M70.1,67.6c-0.4-0.3-0.9-0.4-1.3-0.8l0,0h-0.1l18.7,0.3l18.7,0.2l-0.1,0.1l0,0c-0.4,0.3-0.9,0.5-1.3,0.7l0,0
		c-0.4,0.2-1,0.4-1.6,0.6l-0.2,0.1c-0.5,0.2-1,0.4-1.6,0.5l-0.4,0.2c-0.5,0.2-1,0.3-1.6,0.4L98.5,70c-0.5,0.1-1,0.2-1.6,0.3
		l-0.8,0.1c-0.5,0.1-1,0.1-1.6,0.2c-0.3,0-0.8,0.1-1.1,0.1c-0.5,0-1,0.1-1.6,0.1s-0.9,0.1-1.3,0.1c-0.4,0-1,0-1.6,0s-1,0-1.4,0h-0.2
		c-0.4,0-1,0-1.4-0.1s-1,0-1.6-0.1s-0.9-0.1-1.3-0.1s-1.1-0.1-1.6-0.2c-0.3,0-0.8-0.1-1.1-0.2C79.6,70.1,79,70,78.5,70l-1-0.2
		c-0.5-0.1-1.1-0.2-1.6-0.3l-0.7-0.2c-0.5-0.2-1.1-0.3-1.6-0.4l-0.4-0.2c-0.5-0.2-1.1-0.4-1.6-0.5l-0.2-0.1
		C71,68,70.5,67.8,70.1,67.6L70.1,67.6z"/>
	<path class="st15" d="M13.4,33.1c0,0,23.3-14.2,30.7-9.2s13.6,10.9,3.8,13C38.1,39,13.4,33.1,13.4,33.1z"/>
	<path class="st15" d="M14.4,50.1c0,0,16.4-13.4,24.2-12.4l7.9,0.9c0,0,0.3,11.6-7.5,10.7C31.1,48.4,14.4,50.1,14.4,50.1z"/>
	<path class="st15" d="M121,30.1H53.9c-6.1,5.2-10.7,11.7-13.7,19.1h94.5C131.8,41.7,127,35.1,121,30.1z"/>
	<g>
		<path class="st14" d="M113.6,34.5c-0.7,0-1.4,0.1-2.1,0.3c-0.3,0.1-0.6,0.2-0.9,0.4c-0.1-0.1-0.1-0.2-0.2-0.3
			c-0.3-0.3-0.6-0.4-1-0.4h-1.5v11.1h2.8v-5.8c0-1.1,0.2-1.6,0.6-1.9c0.3-0.4,1-0.6,1.7-0.6h1.2v-2.8L113.6,34.5z M62.5,31.3H61v13
			c0,0.4,0.2,0.7,0.4,1c0.3,0.3,0.6,0.4,1,0.4h1.5v-13c0-0.4-0.2-0.7-0.4-1S62.8,31.3,62.5,31.3z M69.8,43.4c1.6,0,2.2-1.8,2.2-3.3
			s-0.5-3.3-2.2-3.3c-1.6,0-2.2,1.8-2.2,3.3C67.6,41.6,68.1,43.4,69.8,43.4z M69.8,34.3c3.2,0,4.9,2.2,4.9,5.7
			c0,3.6-1.7,5.7-4.9,5.7c-3.2,0-4.9-2.1-4.9-5.7C64.9,36.5,66.5,34.3,69.8,34.3z M55.3,43.4c-1.6,0-2.2-1.8-2.2-3.3
			s0.5-3.3,2.2-3.3c0.9,0,1.4,0.5,1.7,1.2H60c-0.6-2.3-2.2-3.6-4.7-3.6c-3.2,0-4.9,2.2-4.9,5.7c0,3.6,1.6,5.7,4.9,5.7
			c2.5,0,4.1-1.3,4.7-3.6h-1.9c0,0-0.5,0-0.8,0.3C56.8,42.9,56.3,43.4,55.3,43.4z M84.7,35c-0.3-0.3-0.6-0.4-1-0.4h-1.4v6.9
			c0,0.7-0.2,1.1-0.6,1.5c-0.3,0.3-0.9,0.4-1.3,0.4c-0.5,0-1-0.2-1.3-0.4s-0.6-0.8-0.6-1.5v-5.5c0-0.4-0.1-0.7-0.3-1s-0.6-0.4-1-0.4
			h-1.4V41c0,1.9,0.5,3.2,1.5,3.9c1,0.7,2,0.9,3.2,0.9c1.2,0,2.2-0.3,3.2-0.9c1-0.7,1.5-1.9,1.5-3.9v-5.1
			C85.1,35.6,84.9,35.2,84.7,35z M95.7,31.6c-0.3-0.3-0.6-0.4-1-0.4h-1.4v4.1c-0.4-0.4-1.3-1.1-2.7-1.1c-2.9,0-4.5,2.2-4.5,5.7
			c0,3.6,1.7,5.7,5,5.7c3.2,0,5-2.1,5-5.7l0,0v-7.4C96.2,32.2,96,31.9,95.7,31.6z M91.2,43.4c-1.7,0-2.2-1.8-2.2-3.3
			s0.5-3.3,2.2-3.3c1.6,0,2.2,1.8,2.2,3.3l0,0C93.4,41.6,92.9,43.4,91.2,43.4z M107,39.3c0,0.3-0.1,0.4-0.2,0.6
			c-0.1,0.1-0.2,0.3-0.3,0.4c-0.3,0.3-0.6,0.4-1,0.4h-5.7c0.1,1.3,0.7,2.6,2.2,2.6c1,0,1.5-0.4,2-1c0.3-0.3,0.8-0.3,0.8-0.3h1.9
			c-0.6,2.3-2.2,3.6-4.7,3.6c-3.2,0-4.9-2.1-4.9-5.7c0-3.6,1.6-5.7,4.9-5.7c2.5,0,4.1,1.3,4.7,3.6C106.8,38.4,106.9,38.8,107,39.3
			L107,39.3z M102.1,36.7c-1.1,0-1.9,0.9-2,1.9h4.1C104.1,37.6,103.3,36.7,102.1,36.7z M123.8,37.3c0-1-0.3-1.8-1.1-2.3
			s-1.9-0.8-3.4-0.8c-1.3,0-2.3,0.4-3.1,1c-0.6,0.5-1,1.3-1.1,2.1h2.7c0.2-0.4,0.3-0.5,0.7-0.7c0.3-0.1,0.6-0.2,1-0.2
			s0.8,0.1,1.1,0.2c0.4,0.2,0.6,0.4,0.6,0.8c0,0.4-0.6,0.9-1.7,1c-1.4,0.2-2.5,0.4-3.5,1.1c-0.7,0.5-1,1.4-1,2.5
			c0,1.2,0.3,2.1,1.1,2.6c0.6,0.5,1.6,0.9,3.4,0.9c1.5,0,2.6-0.4,3.4-0.9c0.8-0.5,1.2-1.1,1.2-2.4v-5H123.8z M120.7,42.8
			c-0.4,0.4-1,0.6-1.7,0.6c-0.3,0-1-0.1-1.3-0.4c-0.3-0.3-0.3-0.4-0.3-0.9c0-0.3,0.1-0.6,0.3-0.8c0.4-0.4,0.9-0.5,1.7-0.7
			c0.6-0.2,1.4-0.4,1.7-0.6v0.9C121.2,41.7,121.2,42.3,120.7,42.8L120.7,42.8z"/>
	</g>
	<path class="st16" d="M97.1,140.1c0-1.9-1.6-3.5-3.5-3.5c-0.1,0-0.2,0-0.3,0c0-0.2,0-0.4,0-0.5c0-2.3-1.8-4.1-4.1-4.1
		c-2.1,0-3.8,1.6-4.1,3.6c-0.3-0.1-0.7-0.2-1-0.2c-1.7,0-3.2,1.4-3.2,3.2c-1.1,0.3-1.9,1.3-1.9,2.5c0,1.4,1,2.5,2.4,2.5l0,0h12.4
		l0,0C95.7,143.4,97.1,142,97.1,140.1z"/>
</g>
</svg>
