<?xml version="1.0" encoding="utf-8"?>
<!-- Generator: Adobe Illustrator 22.0.1, SVG Export Plug-In . SVG Version: 6.00 Build 0)  -->
<svg version="1.1" id="Layer_1" xmlns="http://www.w3.org/2000/svg" xmlns:xlink="http://www.w3.org/1999/xlink" x="0px" y="0px"
	 viewBox="0 0 182.6 222.9" style="enable-background:new 0 0 182.6 222.9;" xml:space="preserve">
<style type="text/css">
	.st0{fill:#F69322;}
	.st1{fill:none;stroke:#FFFFFF;stroke-width:2;stroke-linecap:round;stroke-linejoin:round;}
	.st2{fill:none;stroke:#FFFFFF;stroke-width:2;stroke-linecap:round;stroke-linejoin:round;stroke-dasharray:9.844459e-02,2.9533;}
	.st3{fill:none;stroke:#FFFFFF;stroke-width:2;stroke-linecap:round;stroke-linejoin:round;stroke-dasharray:9.810104e-02,2.943;}
	.st4{fill:#FFFFFF;}
	.st5{fill:#BB9268;}
	.st6{fill:#010101;}
	.st7{clip-path:url(#SVGID_2_);fill:#FFFFFF;}
	.st8{clip-path:url(#SVGID_2_);}
	.st9{clip-path:url(#SVGID_2_);fill:#030305;}
	.st10{fill:#030305;}
	.st11{fill:#8F572B;}
</style>
<g>
	<path d="M114.8,185.4l-4.5-25.1l-53.7-53.2l0,0L38.8,89.5c-2.8-2.8-7.3-2.7-10,0c-2.8,2.8-2.7,7.3,0,10l17.8,17.6l0,0l53.7,53.2
		L114.8,185.4z"/>
	<polygon class="st0" points="109.8,170.3 111.7,179.4 52.3,120.2 55.8,116.7 	"/>
	<path class="st0" d="M31.3,99.6l7.8-7.9c0.3-0.3,1-0.2,1.5,0.4c0.5,0.5,0.7,1.2,0.4,1.5l-7.8,7.9c-0.3,0.3-1,0.2-1.5-0.4
		C31.1,100.6,31,99.9,31.3,99.6z"/>
	<path class="st0" d="M34.6,103l7.8-7.9c0.3-0.3,1-0.2,1.5,0.4c0.5,0.5,0.7,1.2,0.4,1.5l-7.8,7.9c-0.3,0.3-1,0.2-1.5-0.4
		C34.5,104,34.3,103.3,34.6,103z"/>
	<path class="st0" d="M38,106.3l7.8-7.9c0.3-0.3,1-0.2,1.5,0.4c0.5,0.5,0.7,1.2,0.4,1.5l-7.8,7.9c-0.3,0.3-1,0.2-1.5-0.4
		C37.8,107.3,37.7,106.6,38,106.3z"/>
	<path class="st0" d="M41.4,109.6l7.8-7.9c0.3-0.3,1-0.2,1.5,0.4c0.5,0.5,0.7,1.2,0.4,1.5l-7.8,7.9c-0.3,0.3-1,0.2-1.5-0.4
		S41.1,110,41.4,109.6z"/>
	<path class="st0" d="M44.7,113l7.8-7.9c0.3-0.3,1-0.2,1.5,0.4c0.5,0.5,0.7,1.2,0.4,1.5l-7.8,7.9c-0.3,0.3-1,0.2-1.5-0.4
		S44.4,113.3,44.7,113z"/>
	<g>
		<path d="M29.9,163.8c-3.3,0-6.7-1.3-9.2-3.8c-5-5.1-5-13.3,0.1-18.3l61.5-60.9c5.1-5,13.3-5,18.3,0.1c5,5.1,5,13.3-0.1,18.3
			L39,160.1C36.5,162.6,33.2,163.8,29.9,163.8z"/>
	</g>
	<g>
		<path d="M153.4,163.8c3.3,0,6.7-1.3,9.2-3.8c5-5.1,5-13.3-0.1-18.3L101,80.8c-5.1-5-13.3-5-18.3,0.1c-5,5.1-5,13.3,0.1,18.3
			l61.5,60.9C146.8,162.6,150.1,163.8,153.4,163.8z"/>
	</g>
	<path d="M122.4,162.4c0,13.3-5.4,14.6-19.9,14.6H80c-14.5,0-17.4,0.6-17.4-12.7l-8.8-44.6c0-13.3,11.7-24.1,26.2-24.1h22.5
		c14.5,0,26.3,10.8,26.3,24.1L122.4,162.4z"/>
	<path d="M59.8,205.1c-1.3,0-2.6-0.2-3.9-0.5c-8.2-2.1-13.2-10.5-11.1-18.8l18.7-72.4c2.1-8.2,10.5-13.2,18.8-11.1
		c8.3,2.1,13.2,10.5,11.1,18.8l-18.7,72.4C72.9,200.5,66.6,205.1,59.8,205.1z"/>
	<path d="M124.3,205.1c-6.9,0-13.1-4.6-14.9-11.6l-18.7-72.4c-2.1-8.2,2.8-16.7,11.1-18.8c8.2-2.1,16.7,2.8,18.8,11.1l18.7,72.4
		c2.1,8.2-2.8,16.7-11.1,18.8C126.8,205,125.5,205.1,124.3,205.1z"/>
	<g>
		<g>
			<line class="st1" x1="61.2" y1="102.5" x2="61.3" y2="102.5"/>
			<line class="st2" x1="63.4" y1="104.6" x2="88.2" y2="129.4"/>
			<polyline class="st1" points="89.3,130.5 89.3,130.5 89.3,130.5 			"/>
			<line class="st3" x1="91.4" y1="128.4" x2="118.3" y2="101.5"/>
			<line class="st1" x1="119.4" y1="100.5" x2="119.4" y2="100.4"/>
		</g>
	</g>
	<path class="st4" d="M98.7,141.3c0-2.2-1.8-4-4-4c-0.1,0-0.2,0-0.3,0c0-0.2,0-0.4,0-0.6c0-2.6-2.1-4.7-4.7-4.7
		c-2.4,0-4.4,1.8-4.7,4.1c-0.4-0.1-0.8-0.2-1.2-0.2c-2,0-3.7,1.6-3.7,3.6c-1.3,0.3-2.2,1.5-2.2,2.8c0,1.6,1.2,2.9,2.8,2.9v0H95v0
		C97.1,145.1,98.7,143.4,98.7,141.3z"/>
	<path class="st5" d="M91.7,99.2c-0.8,0-1.6,0-2.4,0c-0.8,0-1.6,0-2.4,0c-9.1,0-17.4-1.4-24.4-4.1c-1,0.7-1.9,1.5-2.7,2.3
		c5.4,8.5,16.6,14.4,29.6,14.4c13.6,0,25.2-6.4,30.3-15.6c-0.7-0.6-1.4-1.1-2.1-1.7C110.1,97.6,101.4,99.2,91.7,99.2z"/>
	<rect x="86.1" y="45.5" width="2.9" height="23.2"/>
	<path class="st6" d="M87.6,17.8c27.8,0,50.4,21.6,50.4,48.1s-20.1,39.2-48,39.2c-0.8,0-1.6,0-2.4,0c-0.8,0-1.6,0-2.4,0
		c-27.8,0-48-12.7-48-39.2S59.8,17.8,87.6,17.8z"/>
	<g>
		<path class="st6" d="M20.3,36.2c0,0,27.1-16.5,35.8-10.8s15.8,12.6,4.5,15.1S20.3,36.2,20.3,36.2z"/>
		<path class="st6" d="M21.4,56c0,0,19.1-15.6,28.3-14.6s9.2,1,9.2,1S59.2,56,50,54.9C40.9,53.9,21.4,56,21.4,56z"/>
	</g>
	<g>
		<defs>
			<ellipse id="SVGID_1_" cx="87.6" cy="60.6" rx="40.5" ry="17.4"/>
		</defs>
		<clipPath id="SVGID_2_">
			<use xlink:href="#SVGID_1_"  style="overflow:visible;"/>
		</clipPath>
		<path class="st7" d="M46.5,64c0-6.3,2.8-12,7.2-16.1c1.2-1.1,2.5-2,3.9-2.8c2.4-1.3,5.2-2.1,8-2.4c3.9-0.4,7.9,0.1,11.6,1.7l4,1.7
			c2,0.9,4.2,1.3,6.4,1.3c2.2,0,4.4-0.5,6.4-1.3l4-1.7c3.7-1.6,7.7-2.1,11.6-1.7c2.8,0.3,5.5,1.1,8,2.4c1.4,0.8,2.7,1.7,3.9,2.8
			c4.4,4.1,7.2,9.8,7.2,16.1c0,0,0,0.1,0,0.1c0,0,0,0.1,0,0.1c0,3.2-0.5,6.1-1.4,8.6c-4.4,13.1-19.2,15.5-38.4,15.4
			c-0.4,0-0.9,0-1.3,0c-0.4,0-0.9,0-1.3,0c-19.2,0.1-34-2.3-38.4-15.4c-0.9-2.5-1.4-5.4-1.4-8.6c0,0,0-0.1,0-0.1
			C46.5,64.1,46.5,64.1,46.5,64z"/>
		<g class="st8">
			<path class="st5" d="M63.3,47.3c0.2-0.1,0.4-0.1,0.6-0.1c2.7-0.6,5.7,0.3,7.7,2.2c2.5,2.3,3.1,5.7,2.1,8.8
				c-0.5,1.6-1.6,3.1-3.1,3.9c-1.1,0.6-2.4,0.9-3.7,1c-2.4,0.2-4.9,0.1-7.3,0.5c-2.3,0.4-4.6,1.3-6.5,2.7c-2.4,1.8-2.7,6.9-2.7,6.9
				c-0.1-0.6-0.2-1.4-0.3-2c-0.2-1.7-0.2-3.3-0.2-5c0.4-7.2,3.7-13.8,10-17.5C61,48.2,62.1,47.6,63.3,47.3z"/>
		</g>
		<path class="st7" d="M66.8,60.5L66.8,60.5c2.3,0,4.1-1.9,4.1-4.2l-0.1-2.4c0-2.3-1.8-4.2-4.1-4.2h0c-2.3,0-4.1,1.9-4.1,4.2
			l0.1,2.4C62.7,58.5,64.6,60.5,66.8,60.5z"/>
		<circle class="st9" cx="66.9" cy="55.4" r="3.1"/>
		<g class="st8">
			<path class="st5" d="M111.9,47.3c-0.2-0.1-0.4-0.1-0.6-0.1c-2.7-0.6-5.7,0.3-7.7,2.2c-2.5,2.3-3.1,5.7-2.1,8.8
				c0.5,1.6,1.6,3.1,3.1,3.9c1.1,0.6,2.4,0.9,3.7,1c2.4,0.2,4.9,0.1,7.3,0.5c2.3,0.4,4.6,1.3,6.5,2.7c2.4,1.8,2.7,6.9,2.7,6.9
				c0.1-0.6,0.2-1.4,0.3-2c0.2-1.7,0.2-3.3,0.2-5c-0.4-7.2-3.7-13.8-10-17.5C114.2,48.2,113.1,47.6,111.9,47.3z"/>
		</g>
		<path class="st7" d="M108.4,60.5L108.4,60.5c-2.3,0-4.1-1.9-4.1-4.2l0.1-2.4c0-2.3,1.8-4.2,4.1-4.2h0c2.3,0,4.1,1.9,4.1,4.2
			l-0.1,2.4C112.5,58.5,110.6,60.5,108.4,60.5z"/>
		<circle class="st9" cx="108.3" cy="55.4" r="3.1"/>
		<g class="st8">
			<ellipse class="st5" cx="87.7" cy="37.9" rx="16.3" ry="9.4"/>
		</g>
	</g>
	<g>
		<rect x="86.1" y="47.3" class="st5" width="3" height="22.3"/>
	</g>
	<path class="st10" d="M102.9,53.9l11.8-1.3c0,0-3.9-4.3-6.9-4.3C104.7,48.3,102.9,53.9,102.9,53.9z"/>
	<path class="st10" d="M62.2,53.2l9.9,1.1c0,0-2.4-5.7-5.5-5.7C63.5,48.6,62.2,53.2,62.2,53.2z"/>
	<circle class="st4" cx="65.6" cy="54.5" r="0.5"/>
	<circle class="st4" cx="106.8" cy="54.5" r="0.5"/>
	<path class="st10" d="M82.5,51l5.1,0l5.1,0c3.5-0.1,6.4,2.8,6.4,6.4c0.1,3.6-2.7,6.6-6.2,6.7l-0.6,0c-0.1,0-0.2,0-0.2,0l-4.5,0
		l-4.5,0c-0.1,0-0.2,0-0.2,0l-0.6,0C78.8,64,76,61,76.1,57.4C76.2,53.8,79.1,50.9,82.5,51z"/>
	<path class="st10" d="M70.2,67.6c-0.5-0.2-0.9-0.5-1.3-0.8l0,0c0,0-0.1,0-0.1-0.1L87.6,67l18.7,0.2c0,0-0.1,0-0.1,0.1l0,0
		c-0.4,0.3-0.8,0.5-1.3,0.7c0,0,0,0,0,0c-0.5,0.2-1,0.4-1.5,0.6c-0.1,0-0.1,0.1-0.2,0.1c-0.5,0.2-1,0.3-1.6,0.5
		c-0.1,0-0.3,0.1-0.4,0.1c-0.5,0.1-1.1,0.3-1.6,0.4c-0.2,0.1-0.4,0.1-0.7,0.2c-0.5,0.1-1.1,0.2-1.6,0.3c-0.3,0-0.6,0.1-0.9,0.1
		c-0.5,0.1-1.1,0.1-1.6,0.2c-0.4,0-0.7,0.1-1.1,0.1c-0.5,0-1.1,0.1-1.6,0.1c-0.4,0-0.9,0.1-1.3,0.1c-0.5,0-1.1,0-1.6,0
		c-0.5,0-0.9,0-1.4,0c0,0-0.1,0-0.1,0s-0.1,0-0.1,0c-0.5,0-0.9,0-1.4-0.1c-0.5,0-1.1,0-1.6-0.1c-0.4,0-0.9-0.1-1.3-0.1
		c-0.5,0-1.1-0.1-1.6-0.1c-0.4,0-0.8-0.1-1.1-0.1c-0.5-0.1-1.1-0.1-1.6-0.2c-0.3-0.1-0.6-0.1-0.9-0.2c-0.5-0.1-1.1-0.2-1.6-0.3
		c-0.2-0.1-0.5-0.1-0.7-0.2C75,69.3,74.5,69.2,74,69c-0.2,0-0.3-0.1-0.4-0.1c-0.6-0.2-1.1-0.3-1.6-0.5c-0.1,0-0.1-0.1-0.2-0.1
		C71.2,68.1,70.7,67.8,70.2,67.6C70.2,67.6,70.2,67.6,70.2,67.6z"/>
	<g>
		<g>
			<path class="st11" d="M158.9,148.9l-6.6-0.7c-4.8-0.5-9.2,2.3-11,6.5c-0.2-1-0.3-2.1-0.2-3.3l0-0.4c0.6-5.9,5.9-10.3,11.9-9.7
				l6.6,0.7c5.9,0.6,10.3,5.9,9.7,11.9l0,0.4c-0.1,1.1-0.4,2.2-0.8,3.2C167.5,153,163.7,149.4,158.9,148.9z"/>
			<path class="st5" d="M157.4,164.1l-6.6-0.7c-4.8-0.5-8.6-4.1-9.5-8.6c1.8-4.2,6.2-7,11-6.5l6.6,0.7c4.8,0.5,8.6,4.1,9.5,8.6
				C166.6,161.8,162.2,164.6,157.4,164.1z"/>
		</g>
		<g>
			<path class="st10" d="M144.3,157.5L144.3,157.5c0-0.2,0-0.4,0-0.6c0.3-1.8,2-2.9,3.8-2.6s2.9,2,2.6,3.8c0,0.2-0.1,0.4-0.2,0.5
				l0,0l0,0.1c0,0,0,0,0,0.1l-5.7,14l-0.5-15.1C144.3,157.6,144.3,157.6,144.3,157.5L144.3,157.5z"/>
			<path class="st10" d="M150.9,158.7L150.9,158.7c0-0.2,0-0.4,0-0.6c0.3-1.8,2-2.9,3.8-2.6c1.8,0.3,2.9,2,2.6,3.8
				c0,0.2-0.1,0.4-0.2,0.5l0,0l0,0.1c0,0,0,0,0,0.1l-5.7,14l-0.5-15.1C150.9,158.8,150.9,158.7,150.9,158.7L150.9,158.7z"/>
			<path class="st10" d="M157.5,159.8L157.5,159.8c0-0.2,0-0.4,0-0.6c0.3-1.8,2-2.9,3.8-2.6c1.8,0.3,2.9,2,2.6,3.8
				c0,0.2-0.1,0.4-0.2,0.5l0,0l0,0.1c0,0,0,0,0,0.1l-5.7,14l-0.5-15.1C157.5,160,157.5,159.9,157.5,159.8L157.5,159.8z"/>
		</g>
	</g>
	<g>
		<path class="st11" d="M30.3,148.6l-6.6,0.7c-4.8,0.5-8.5,4.2-9.4,8.7c-0.4-1-0.7-2-0.9-3.2l0-0.4c-0.7-5.9,3.6-11.3,9.6-12
			l6.6-0.7c5.9-0.7,11.3,3.6,12,9.6l0,0.4c0.1,1.1,0.1,2.2-0.1,3.3C39.5,150.8,35.1,148.1,30.3,148.6z"/>
		<path class="st5" d="M31.9,163.7l-6.6,0.7c-4.8,0.5-9.2-2.2-11.1-6.4c0.9-4.5,4.6-8.2,9.4-8.7l6.6-0.7c4.8-0.5,9.2,2.2,11.1,6.4
			C40.5,159.5,36.7,163.2,31.9,163.7z"/>
		<g>
			<path class="st10" d="M17.9,159.1L17.9,159.1c-0.1-0.2-0.1-0.4-0.1-0.6c-0.2-1.8,1.1-3.4,2.9-3.6s3.4,1.1,3.6,2.9
				c0,0.2,0,0.4,0,0.6l0,0l0,0.1c0,0,0,0,0,0.1l-1.5,15.1l-4.8-14.3C17.9,159.2,17.9,159.2,17.9,159.1L17.9,159.1z"/>
			<path class="st10" d="M24.5,158.4L24.5,158.4c-0.1-0.2-0.1-0.4-0.1-0.6c-0.2-1.8,1.1-3.4,2.9-3.6s3.4,1.1,3.6,2.9
				c0,0.2,0,0.4,0,0.6l0,0l0,0.1c0,0,0,0,0,0.1l-1.5,15.1l-4.8-14.3C24.5,158.5,24.5,158.4,24.5,158.4L24.5,158.4z"/>
			<path class="st10" d="M31.2,157.6L31.2,157.6c-0.1-0.2-0.1-0.4-0.1-0.6c-0.2-1.8,1.1-3.4,2.9-3.6s3.4,1.1,3.6,2.9
				c0,0.2,0,0.4,0,0.6l0,0l0,0.1c0,0,0,0,0,0.1L36,172.1l-4.8-14.3C31.2,157.7,31.2,157.7,31.2,157.6L31.2,157.6z"/>
		</g>
	</g>
</g>
</svg>
