<svg id="Layer_1" data-name="Layer 1" xmlns="http://www.w3.org/2000/svg" viewBox="0 0 178.72 244.04"><defs><style>.cls-1{fill:#585858;}.cls-2{fill:#ed1c24;}.cls-3{fill:#848484;}.cls-4{fill:#030305;}.cls-5,.cls-6,.cls-7{fill:none;stroke:#dcdcdc;stroke-linecap:round;stroke-linejoin:round;stroke-width:2.29px;}.cls-6{stroke-dasharray:0.11 3.38;}.cls-7{stroke-dasharray:0.11 3.37;}.cls-8{fill:#dcdcdc;}.cls-9{fill:#fff;}.cls-10{fill:#c00;}.cls-11{fill:#a30000;}.cls-12{fill:#dc5050;}</style></defs><title>Red Hat Brady</title><path class="cls-1" d="M104.15,104.57a14.28,14.28,0,0,0-2.07-1.72,14.67,14.67,0,0,1-1.71,19L29.92,191.63a14.64,14.64,0,0,1-10.42,4.24A15.11,15.11,0,0,1,11,193.23a12.65,12.65,0,0,0,1.61,2,14.51,14.51,0,0,0,10.53,4.35,14.64,14.64,0,0,0,10.43-4.24L104,125.53a14.72,14.72,0,0,0,.12-21" transform="translate(-4.41 -2.8)"/><path d="M120.41,224.27l-5.15-28.75L53.75,134.58,33.24,114.42a8.1,8.1,0,0,0-11.45,11.46L42.18,146,103.69,207Z" transform="translate(-4.41 -2.8)"/><polygon class="cls-2" points="110.28 204.18 112.45 214.6 44.41 146.79 48.42 142.78 110.28 204.18"/><path class="cls-2" d="M24.77,126l8.93-9c.34-.34,1.15-.23,1.72.46s.8,1.38.46,1.72l-8.94,9c-.34.34-1.14.23-1.71-.46s-.92-1.37-.46-1.72" transform="translate(-4.41 -2.8)"/><path class="cls-2" d="M28.55,129.89l8.93-9c.34-.35,1.15-.23,1.72.46s.8,1.37.46,1.71l-8.94,9c-.34.35-1.14.23-1.71-.46s-.81-1.37-.46-1.71" transform="translate(-4.41 -2.8)"/><path class="cls-2" d="M32.44,133.67l8.94-9c.34-.35,1.14-.23,1.71.46s.81,1.37.46,1.71l-8.93,9c-.34.35-1.15.23-1.72-.46s-.8-1.37-.46-1.71" transform="translate(-4.41 -2.8)"/><path class="cls-2" d="M36.34,137.45l8.93-9c.34-.35,1.15-.23,1.72.46s.8,1.37.46,1.71l-8.94,9.05c-.34.35-1.14.23-1.72-.46s-.91-1.26-.45-1.71" transform="translate(-4.41 -2.8)"/><path class="cls-2" d="M40.12,141.34l8.93-9.05c.34-.34,1.15-.23,1.72.46s.8,1.37.46,1.72l-8.94,9.05c-.34.34-1.14.23-1.72-.46s-.8-1.38-.45-1.72" transform="translate(-4.41 -2.8)"/><path class="cls-1" d="M129.12,190.48c0,15.23-6.19,16.73-22.8,16.73H80.55c-16.61,0-19.93.68-19.93-14.55L51,144.09a22.79,22.79,0,0,0-.46,4.93L60.62,200.1c0,15.24,3.32,14.55,19.93,14.55h25.77c16.61,0,22.8-1.49,22.8-16.72L136.45,149a20.31,20.31,0,0,0-.46-4.59Z" transform="translate(-4.41 -2.8)"/><path class="cls-1" d="M148.36,224.73,126.94,141.8a17.62,17.62,0,0,0-20.16-12.94,17.72,17.72,0,0,1,14.09,12.94l21.42,82.93a17.68,17.68,0,0,1-12.71,21.53l-1.38.35a14,14,0,0,0,3.1.23,19.56,19.56,0,0,0,4.46-.58,17.63,17.63,0,0,0,12.6-21.53" transform="translate(-4.41 -2.8)"/><path class="cls-3" d="M142.29,224.73,120.87,141.8a17.71,17.71,0,0,0-14.09-12.94c-.46.11-.91.11-1.37.22a17.74,17.74,0,0,0-12.72,21.54l21.42,82.93a17.72,17.72,0,0,0,14.09,12.94l1.38-.34a17.54,17.54,0,0,0,12.71-21.42" transform="translate(-4.41 -2.8)"/><path class="cls-1" d="M83.19,129.09a16.89,16.89,0,0,0-7.57-.23c.46.11.81.11,1.27.23A17.63,17.63,0,0,1,89.6,150.62L68.18,233.55a17.72,17.72,0,0,1-14,12.94,15.15,15.15,0,0,0,3.2.35,17.58,17.58,0,0,0,17.07-13.29L95.9,150.62a17.62,17.62,0,0,0-12.71-21.53" transform="translate(-4.41 -2.8)"/><path class="cls-3" d="M106.32,121.41h-5.49a14.72,14.72,0,0,0,1.26-18.56,14.79,14.79,0,0,0-18.9,1.61L12.74,174.22a14.94,14.94,0,0,0-1.72,19,14.31,14.31,0,0,0,8.48,2.64,14.64,14.64,0,0,0,10.42-4.24l25.32-25-15,58.18A17.69,17.69,0,0,0,53,246.38a5,5,0,0,0,1.26.23,17.73,17.73,0,0,0,14-13l6.87-26.46h31.27c16.61,0,22.8-1.48,22.8-16.72l6.87-46c-2.4-13.05-14.77-23-29.67-23" transform="translate(-4.41 -2.8)"/><path class="cls-1" d="M175.05,174.22l-70.44-69.76a14.84,14.84,0,0,0-21,.11,13.19,13.19,0,0,0-1.6,2,14.79,14.79,0,0,1,18.9,1.6l70.45,69.76a15,15,0,0,1,1.71,19,14.28,14.28,0,0,0,2.07-1.72,14.84,14.84,0,0,0-.12-21" transform="translate(-4.41 -2.8)"/><path class="cls-3" d="M171.39,177.88,100.94,108A14.79,14.79,0,0,0,82,106.4a14.68,14.68,0,0,0,1.72,19l70.44,69.76a14.68,14.68,0,0,0,10.43,4.24,15.08,15.08,0,0,0,8.47-2.64,14.52,14.52,0,0,0-1.71-18.9" transform="translate(-4.41 -2.8)"/><path class="cls-1" d="M171.16,182.46l-7.56-.8a12.39,12.39,0,0,0-12.6,7.45,13.23,13.23,0,0,1-.23-3.78v-.46a12.46,12.46,0,0,1,13.63-11.11l7.56.8a12.46,12.46,0,0,1,11.11,13.63v.46a12.94,12.94,0,0,1-.92,3.66,12.68,12.68,0,0,0-11-9.85" transform="translate(-4.41 -2.8)"/><path class="cls-3" d="M169.44,199.87l-7.56-.8A12.41,12.41,0,0,1,151,189.22a12.37,12.37,0,0,1,12.6-7.44l7.56.8A12.41,12.41,0,0,1,182,192.43a12.37,12.37,0,0,1-12.6,7.44" transform="translate(-4.41 -2.8)"/><path class="cls-4" d="M154.43,192.31h0v-.68a3.73,3.73,0,1,1,7.33,1.37.87.87,0,0,1-.22.57v.23l-6.54,16-.57-17.3Z" transform="translate(-4.41 -2.8)"/><path class="cls-4" d="M162,193.69h0V193a3.73,3.73,0,1,1,7.33,1.38.9.9,0,0,1-.22.57v.23l-6.53,16L162,193.92Z" transform="translate(-4.41 -2.8)"/><path class="cls-4" d="M169.55,195h0v-.69a3.73,3.73,0,1,1,7.33,1.38.9.9,0,0,1-.22.57v.23l-6.54,16-.57-17.29Z" transform="translate(-4.41 -2.8)"/><path class="cls-1" d="M23.85,182.12l-7.56.8a12.41,12.41,0,0,0-10.77,10,17.71,17.71,0,0,1-1-3.67v-.46a12.46,12.46,0,0,1,11-13.74l7.56-.8a12.44,12.44,0,0,1,13.74,11v.46a13.69,13.69,0,0,1-.11,3.78,12.79,12.79,0,0,0-12.83-7.33" transform="translate(-4.41 -2.8)"/><path class="cls-3" d="M25.68,199.42l-7.56.8a12.53,12.53,0,0,1-12.71-7.33,12.41,12.41,0,0,1,10.77-10l7.56-.8a12.53,12.53,0,0,1,12.71,7.33,12.31,12.31,0,0,1-10.77,10" transform="translate(-4.41 -2.8)"/><path class="cls-4" d="M9.65,194.15h0a1.4,1.4,0,0,1-.12-.69,3.75,3.75,0,1,1,7.45-.8v.91l-1.72,17.3-5.5-16.38c-.11-.23-.11-.23-.11-.34" transform="translate(-4.41 -2.8)"/><path class="cls-4" d="M17.21,193.34h0a1.35,1.35,0,0,1-.12-.68,3.75,3.75,0,1,1,7.45-.8v.91l-1.72,17.3-5.5-16.38a.93.93,0,0,1-.11-.35" transform="translate(-4.41 -2.8)"/><path class="cls-4" d="M24.88,192.43h0a1.52,1.52,0,0,1-.11-.69,3.74,3.74,0,0,1,7.44-.8v.92L30.38,209l-5.5-16.38Z" transform="translate(-4.41 -2.8)"/><path class="cls-1" d="M92.35,122.79c18.47,0,33.45,16,33.45,35.73s-15,35.74-33.45,35.74-33.45-16-33.45-35.74,15-35.73,33.45-35.73" transform="translate(-4.41 -2.8)"/><line class="cls-5" x1="54.61" y1="126.52" x2="54.72" y2="126.52"/><line class="cls-6" x1="57.13" y1="128.92" x2="85.54" y2="157.33"/><line class="cls-5" x1="86.68" y1="158.59" x2="86.79" y2="158.59"/><line class="cls-7" x1="89.2" y1="156.19" x2="120.01" y2="125.37"/><line class="cls-5" x1="121.27" y1="124.23" x2="121.27" y2="124.11"/><path class="cls-1" d="M94,125.53h-5.5a78.09,78.09,0,0,1-27.94-4.69,23.71,23.71,0,0,0-3.1,2.63c6.19,9.74,19,16.5,33.91,16.5,15.58,0,28.86-7.33,34.71-17.87-.81-.69-1.61-1.26-2.41-1.95-8.59,3.55-18.56,5.38-29.67,5.38" transform="translate(-4.41 -2.8)"/><rect x="83.13" y="61.23" width="3.32" height="26.58"/><path class="cls-3" d="M89.26,32.29C121.1,32.29,147,57,147,87.39s-23,44.9-55,44.9h-5.5c-31.85,0-55-14.54-55-44.9s25.77-55.1,57.73-55.1" transform="translate(-4.41 -2.8)"/><path class="cls-8" d="M102,173.76a4.59,4.59,0,0,0-4.58-4.58h-.34v-.69a5.41,5.41,0,0,0-10.77-.69,6,6,0,0,0-1.38-.23,4.2,4.2,0,0,0-4.24,4.12,3.31,3.31,0,0,0-2.51,3.21,3.22,3.22,0,0,0,3.2,3.32H97.73a4.42,4.42,0,0,0,4.24-4.46" transform="translate(-4.41 -2.8)"/><path class="cls-8" d="M42.18,85.21a25.23,25.23,0,0,1,8.25-18.44,24.61,24.61,0,0,1,4.46-3.21,25.17,25.17,0,0,1,9.17-2.74,26.54,26.54,0,0,1,13.28,1.94l4.59,1.95a17.87,17.87,0,0,0,7.33,1.49,19.86,19.86,0,0,0,7.33-1.49l4.58-1.95a26.58,26.58,0,0,1,13.29-1.94,25.84,25.84,0,0,1,9.16,2.74,24.92,24.92,0,0,1,12.71,21.65v.23a29.1,29.1,0,0,1-1.6,9.85c-5,15-22,17.76-44,17.64h-3c-22,.12-38.95-2.63-44-17.64a29.1,29.1,0,0,1-1.6-9.85v-.23Z" transform="translate(-4.41 -2.8)"/><path class="cls-3" d="M61.42,66.09a1.4,1.4,0,0,1,.69-.12,10,10,0,0,1,8.82,2.52,9.47,9.47,0,0,1,2.4,10.08A7.68,7.68,0,0,1,69.78,83a10.48,10.48,0,0,1-4.23,1.14c-2.75.23-5.62.12-8.37.58a17.7,17.7,0,0,0-7.44,3.09c-2.75,2.06-3.09,7.9-3.09,7.9-.12-.68-.23-1.6-.35-2.29a47.74,47.74,0,0,1-.23-5.73c.46-8.24,4.24-15.8,11.46-20a23.22,23.22,0,0,1,3.89-1.6" transform="translate(-4.41 -2.8)"/><path class="cls-9" d="M65.43,81.2h0a4.74,4.74,0,0,0,4.7-4.81L70,73.64a4.7,4.7,0,1,0-9.39,0l.12,2.75a4.89,4.89,0,0,0,4.69,4.81" transform="translate(-4.41 -2.8)"/><path class="cls-4" d="M65.55,71.81A3.55,3.55,0,1,1,62,75.36a3.55,3.55,0,0,1,3.56-3.55" transform="translate(-4.41 -2.8)"/><path class="cls-3" d="M117.09,66.09a1.4,1.4,0,0,0-.69-.12,10,10,0,0,0-8.82,2.52,9.47,9.47,0,0,0-2.4,10.08A7.68,7.68,0,0,0,108.73,83,10.48,10.48,0,0,0,113,84.18c2.75.23,5.61.12,8.36.58a17.79,17.79,0,0,1,7.45,3.09c2.74,2.06,3.09,7.9,3.09,7.9.11-.68.23-1.6.34-2.29a47.74,47.74,0,0,0,.23-5.73c-.46-8.24-4.24-15.8-11.45-20a23,23,0,0,0-3.9-1.6" transform="translate(-4.41 -2.8)"/><path class="cls-9" d="M113.08,81.2h0a4.74,4.74,0,0,1-4.69-4.81l.11-2.75a4.7,4.7,0,1,1,9.39,0l-.11,2.75a4.9,4.9,0,0,1-4.7,4.81" transform="translate(-4.41 -2.8)"/><path class="cls-4" d="M113,71.81a3.55,3.55,0,1,1-3.55,3.55A3.55,3.55,0,0,1,113,71.81" transform="translate(-4.41 -2.8)"/><rect class="cls-3" x="83.13" y="63.29" width="3.44" height="25.54"/><path class="cls-4" d="M106.78,73.64l13.52-1.48s-4.47-4.93-7.91-4.93-5.61,6.41-5.61,6.41" transform="translate(-4.41 -2.8)"/><path class="cls-4" d="M60.16,72.84,71.5,74.1s-2.75-6.53-6.3-6.53-5,5.27-5,5.27" transform="translate(-4.41 -2.8)"/><path class="cls-9" d="M64.06,73.76a.58.58,0,0,1,.57.57.58.58,0,0,1-1.15,0,.58.58,0,0,1,.58-.57" transform="translate(-4.41 -2.8)"/><path class="cls-9" d="M111.25,73.76a.58.58,0,0,1,.57.57.57.57,0,0,1-.57.57.56.56,0,0,1-.57-.57.57.57,0,0,1,.57-.57" transform="translate(-4.41 -2.8)"/><path class="cls-4" d="M83.41,70.32H95.1a7.45,7.45,0,0,1,.23,14.89H83.19a7.42,7.42,0,0,1-7.11-7.67,7.29,7.29,0,0,1,7.33-7.22" transform="translate(-4.41 -2.8)"/><path class="cls-4" d="M69.33,89.34a6.55,6.55,0,0,1-1.49-.92s-.12,0-.12-.11l21.54.34,21.42.23s-.12,0-.12.11a6.1,6.1,0,0,1-1.49.81l-1.71.68c-.12,0-.12.12-.23.12-.58.23-1.15.34-1.84.57-.11,0-.34.11-.46.11-.57.12-1.26.35-1.83.46a5.73,5.73,0,0,1-.8.23c-.57.12-1.26.23-1.83.35-.35,0-.69.11-1,.11-.58.11-1.26.11-1.84.23s-.8.11-1.26.11-1.26.12-1.83.12-1,.11-1.49.11H89.26a7.93,7.93,0,0,1-1.61-.11,9.38,9.38,0,0,1-1.83-.12c-.46,0-1-.11-1.49-.11s-1.26-.12-1.83-.12-.92-.11-1.26-.11c-.57-.11-1.26-.11-1.83-.23A10.75,10.75,0,0,1,78.14,92l-1.83-.34c-.23-.12-.57-.12-.8-.23-.57-.12-1.26-.34-1.83-.46-.23,0-.35-.11-.46-.11-.69-.23-1.26-.35-1.83-.58-.12,0-.12-.11-.23-.11-.69-.23-1.26-.57-1.83-.8" transform="translate(-4.41 -2.8)"/><path class="cls-10" d="M42.17,48.72c0,.63.07,1.31.1,2,.29,6,.71,15.1,8.1,16.84,3.84.91,7.65-1.11,10.71-2.73l.89-.46a52,52,0,0,1,24.85-6c8.19-.42,20.85,2.28,28.79,6.15l.89.44c2.54,1.26,5.59,2.77,8.7,2.73a8.73,8.73,0,0,0,2.08-.27c7.35-1.94,7.54-11,7.66-17.06,0-.71,0-1.39.06-2" transform="translate(-4.41 -2.8)"/><path class="cls-10" d="M135.44,54.14a2.91,2.91,0,0,0,1.24-.71c2.34-2.64-1.09-11.76-1.91-14.3-6.09-19-22-30.89-41.7-32.4A4.81,4.81,0,0,0,91.93,4.4a5.54,5.54,0,0,0-4.36-1.6A5.3,5.3,0,0,0,83.3,4.54a4.47,4.47,0,0,0-1,2.32,58,58,0,0,0-8.55,1.48C63.26,11,54.43,16.88,48.94,24.87c-7.71,11.19-7.95,17-8.52,28.73a2,2,0,0,0,1.48,2.21,6.32,6.32,0,0,0,.76,0Zm-50-47.83a2.78,2.78,0,0,1,2.12-.7,3,3,0,0,1,2.24.68,1.79,1.79,0,0,1,.2.28c-1.59,0-3.18,0-4.75.06a1.5,1.5,0,0,1,.19-.32" transform="translate(-4.41 -2.8)"/><path class="cls-9" d="M77.7,35.29a4.25,4.25,0,0,0-1-.13,4.1,4.1,0,0,0-1.55.27.14.14,0,0,0-.07.12.07.07,0,0,0,0,.05c0,.14,0,.29-.42.38-.58.12-1,.72-1.16.91s-.93.38-.83.24a5.67,5.67,0,0,0,.58-.81,7.54,7.54,0,0,1,.53-.73,2.34,2.34,0,0,0,.37-.67,4.44,4.44,0,0,0,.08-.68,6.08,6.08,0,0,0,.24-.82c0-.12-.54.19-.8.18s-.5-.15-.73-.16-.47.22-.73.17-.27-.15-.52-.16a13.11,13.11,0,0,1-1.66.17c-.82,0-1.58-1-1.68-1.21s-.27-.19-.44,0a.28.28,0,0,1-.42-.07c-.1-.19-.39-.74-.84-.86a.68.68,0,0,0-.89.74c0,.41.3.52.42.74s.18.36.41.45.22.17.18.31-.22.14-.33.14a.85.85,0,0,1-.52-.13,1.22,1.22,0,0,1-.38-.42.67.67,0,0,0-.62-.34.77.77,0,0,0-.34.08,3,3,0,0,1-1.42.34h-.59A8.48,8.48,0,0,0,77.7,35.29" transform="translate(-4.41 -2.8)"/><path class="cls-9" d="M79,34.78v-.14h.09s.09,0,.09.06,0,.07-.1.07Zm0,.06h.07l.12.19h.07l-.12-.2a.11.11,0,0,0,.11-.12q0-.12-.15-.12h-.17V35H79Z" transform="translate(-4.41 -2.8)"/><path class="cls-9" d="M79.06,34.45a.36.36,0,1,0,0,.71.35.35,0,0,0,.35-.35.36.36,0,0,0-.35-.36m.42.36a.43.43,0,0,1-.42.43.44.44,0,0,1-.43-.43.43.43,0,0,1,.43-.43.42.42,0,0,1,.42.43" transform="translate(-4.41 -2.8)"/><path d="M77.7,35.29a4.25,4.25,0,0,0-1-.13,4.1,4.1,0,0,0-1.55.27.14.14,0,0,0-.07.12.07.07,0,0,0,0,.05c0,.14,0,.29-.42.38-.58.12-1,.72-1.16.91s-.93.38-.83.24a5.67,5.67,0,0,0,.58-.81,7.54,7.54,0,0,1,.53-.73,2.34,2.34,0,0,0,.37-.67,4.44,4.44,0,0,0,.08-.68,6.08,6.08,0,0,0,.24-.82c0-.12-.54.19-.8.18s-.5-.15-.73-.16-.47.22-.73.17-.27-.15-.52-.16a13.11,13.11,0,0,1-1.66.17c-.82,0-1.58-1-1.68-1.21s-.27-.19-.44,0a.28.28,0,0,1-.42-.07c-.1-.19-.39-.74-.84-.86a.68.68,0,0,0-.89.74c0,.41.3.52.42.74s.18.36.41.45.22.17.18.31-.22.14-.33.14a.85.85,0,0,1-.52-.13,1.22,1.22,0,0,1-.38-.42.67.67,0,0,0-.62-.34.77.77,0,0,0-.34.08,3,3,0,0,1-1.42.34h-.59A8.47,8.47,0,1,1,77.7,35.29" transform="translate(-4.41 -2.8)"/><path class="cls-9" d="M83.39,31.23c0-.78,0-1.35,0-1.87h1.27l0,1.1h0a1.73,1.73,0,0,1,1.6-1.23,1.79,1.79,0,0,1,.34,0v1.39a2,2,0,0,0-.44-.05,1.29,1.29,0,0,0-1.32,1.11,2,2,0,0,0,0,.44v3H83.37Z" transform="translate(-4.41 -2.8)"/><path class="cls-9" d="M91,31.66a1.25,1.25,0,0,0-1.21-1.42,1.45,1.45,0,0,0-1.35,1.41Zm-2.56,1a1.58,1.58,0,0,0,1.79,1.52,4.55,4.55,0,0,0,1.61-.26l.21,1a5.31,5.31,0,0,1-2,.36,2.74,2.74,0,0,1-3-2.95,2.87,2.87,0,0,1,2.85-3.11c1.88,0,2.49,1.56,2.49,2.83a3.24,3.24,0,0,1,0,.63Z" transform="translate(-4.41 -2.8)"/><path class="cls-9" d="M98.69,27.17l-1.47-.42V30h0a1.86,1.86,0,0,0-1.63-.77c-1.39,0-2.61,1.15-2.61,3.1,0,1.78,1.09,3,2.48,3a2.07,2.07,0,0,0,1.89-1h0l.07.92h1.31c0-.39,0-1,0-1.63Zm-1.48,5.52a2,2,0,0,1,0,.43,1.31,1.31,0,0,1-1.27,1c-.92,0-1.45-.78-1.45-1.85S95,30.4,95.92,30.4a1.29,1.29,0,0,1,1.26,1,2.34,2.34,0,0,1,0,.38Z" transform="translate(-4.41 -2.8)"/><path class="cls-9" d="M102.57,29.28a2.2,2.2,0,0,0-1.18.33,2.16,2.16,0,0,0-.79.83h0V27.73l-.57-.18,0,7.66h.57V31.66a1.64,1.64,0,0,1,.08-.57,1.91,1.91,0,0,1,1.76-1.31c1.19,0,1.59,1,1.59,2v3.44h.58V31.72c0-2.16-1.46-2.44-2-2.44" transform="translate(-4.41 -2.8)"/><path class="cls-9" d="M109.16,32.13c-1.27,0-2.94.15-2.94,1.54a1.11,1.11,0,0,0,1.15,1.22,1.75,1.75,0,0,0,1.72-1.16,1,1,0,0,0,.07-.35Zm.57,1.73a9.05,9.05,0,0,0,.08,1.38h-.53l-.08-.84h0a2.16,2.16,0,0,1-1.85,1,1.58,1.58,0,0,1-1.71-1.6c0-1.34,1.19-2.14,3.55-2.11v-.16c0-.57-.11-1.72-1.48-1.71a2.52,2.52,0,0,0-1.46.43l-.18-.42a3.11,3.11,0,0,1,1.7-.5c1.68,0,2,1.26,2,2.3Z" transform="translate(-4.41 -2.8)"/><path class="cls-9" d="M112,28.15v1.28h1.65v.46H112v3.78c0,.74.22,1.2.85,1.2a2.08,2.08,0,0,0,.66-.09l.07.45a2.13,2.13,0,0,1-.81.13,1.24,1.24,0,0,1-1-.41,2.16,2.16,0,0,1-.35-1.39V29.9h-1v-.47h1V28.36Z" transform="translate(-4.41 -2.8)"/><path class="cls-9" d="M114.4,34.88v-.13h.09s.09,0,.09.06,0,.08-.1.08Zm0,.06h.07l.12.19h.07l-.12-.19a.11.11,0,0,0,.11-.12c0-.09-.05-.13-.15-.13h-.17v.44h.07Z" transform="translate(-4.41 -2.8)"/><path class="cls-9" d="M114.48,34.56a.36.36,0,0,0-.36.35.36.36,0,0,0,.35.36.36.36,0,0,0,.36-.36.35.35,0,0,0-.35-.35m.42.35a.43.43,0,1,1-.85,0,.43.43,0,0,1,.85,0" transform="translate(-4.41 -2.8)"/><path d="M72.46,34.49a.34.34,0,0,1,0,.37.6.6,0,0,1-.21.24.53.53,0,0,1-.67,0c-.17-.11-.18-.15-.42-.12S71,34.84,71,34.7s.31-.26.62-.07c.14.08.36.25.55.1a1.6,1.6,0,0,0,.24-.23h0" transform="translate(-4.41 -2.8)"/><path class="cls-10" d="M75.39,28.42a1.35,1.35,0,0,1-.74.91c-.07,0-.1,0-.07-.09a4.27,4.27,0,0,0,.3-.56,1.55,1.55,0,0,0,0-1.05,9.42,9.42,0,0,0-1.46-3.19A2.2,2.2,0,0,0,71.31,24a3,3,0,0,1-1.85.12c-1.77-.4-2,.48-2.13.87S67,26.49,67,26.49c-.09.44-.19,1.22,2.55,1.75,1.28.25,1.34.58,1.4.81a1.25,1.25,0,0,0,.44.8c.18.12,0,.22-.2.24a10.23,10.23,0,0,1-3.75-1.21c-1-.59-1-1.13-.76-1.58-1.47-.17-2.57.13-2.77.82-.35,1.2,2.61,3.25,6,4.28,3.55,1.08,7.2.34,7.61-1.89.19-1-.66-1.76-2.1-2.09M71,24.6h0a0,0,0,0,1,0,0,0,0,0,0,1,0,0,2.41,2.41,0,0,1,.8-.22h.33c.54,0,1,.23,1,.49s-.45.44-1,.43a1.79,1.79,0,0,1-.48-.07s0,0,0,0a0,0,0,0,1,0,0c.34-.08.57-.21.55-.33s-.46-.25-1-.2l-.17,0m-1,1.62c-1,.07-1.08.17-1.26.37s-.6-.36-.6-.36a.53.53,0,0,1-.32-.68c.14-.31.38-.21.45-.12a.72.72,0,0,0,.55.3c.26,0,.55-.06,1-.06s.7.16.71.29,0,.23-.5.26" transform="translate(-4.41 -2.8)"/><path class="cls-10" d="M42.34,54.87s39.45-26.76,92.44-2.2Z" transform="translate(-4.41 -2.8)"/><path class="cls-11" d="M134.52,53.38c-51.59-21.7-91.78,1-91.78,1,.67,4.88,2.42,9.76,7.63,11,3.84.91,7.65-1.11,10.71-2.73l.89-.46a52,52,0,0,1,24.85-6c8.19-.42,20.85,2.28,28.79,6.15l.89.44c2.54,1.26,5.59,2.77,8.7,2.73a8.4,8.4,0,0,0,2.09-.28c5.33-1.4,6.89-6.59,7.39-11.63" transform="translate(-4.41 -2.8)"/><path class="cls-12" d="M42.27,50.74A48.63,48.63,0,0,1,71.79,10S49.64,21.32,46.39,49.69Z" transform="translate(-4.41 -2.8)"/></svg>