<?xml version="1.0" encoding="utf-8"?>
<!-- Generator: Adobe Illustrator 22.0.1, SVG Export Plug-In . SVG Version: 6.00 Build 0)  -->
<svg version="1.1" id="Layer_1" xmlns="http://www.w3.org/2000/svg" xmlns:xlink="http://www.w3.org/1999/xlink" x="0px" y="0px"
	 viewBox="0 0 182.6 222.9" style="enable-background:new 0 0 182.6 222.9;" xml:space="preserve">
<style type="text/css">
	.st0{fill:#353535;}
	.st1{fill:#CECECE;}
	.st2{fill:#F69220;}
	.st3{fill:#70AC50;}
	.st4{fill:#FFFFFF;}
	.st5{fill:#000002;}
	.st6{fill:#A5ADAB;}
	.st7{fill:none;stroke:#231F20;stroke-width:1.6266;stroke-linecap:round;stroke-linejoin:round;}
	
		.st8{fill:none;stroke:#231F20;stroke-width:1.6266;stroke-linecap:round;stroke-linejoin:round;stroke-dasharray:7.997493e-02,2.3992;}
	
		.st9{fill:none;stroke:#231F20;stroke-width:1.6266;stroke-linecap:round;stroke-linejoin:round;stroke-dasharray:8.077984e-02,2.4234;}
	.st10{fill:#231F20;}
</style>
<rect y="0" class="st0" width="182.6" height="222.9"/>
<g>
	<path class="st1" d="M100.4,80.9c-0.6-0.6-1.2-1.1-1.8-1.5c3.6,5.1,3.1,12.1-1.5,16.6l-61.5,60.9c-2.5,2.5-5.8,3.7-9.1,3.7
		c-2.6,0-5.2-0.8-7.4-2.3c0.4,0.6,0.9,1.2,1.4,1.7c2.5,2.6,5.9,3.8,9.2,3.8s6.6-1.2,9.1-3.7l61.5-60.9
		C105.4,94.1,105.5,85.9,100.4,80.9z"/>
	<path d="M114.6,185.4l-4.5-25.1l-53.7-53.2l0,0L38.5,89.5c-2.8-2.8-7.3-2.7-10,0c-2.8,2.8-2.7,7.3,0,10l17.8,17.6l0,0l53.7,53.2
		L114.6,185.4z"/>
	<polygon class="st2" points="109.5,170.3 111.5,179.4 52.1,120.2 55.6,116.7 	"/>
	<path class="st3" d="M31.1,99.6l7.8-7.9c0.3-0.3,1-0.2,1.5,0.4c0.5,0.5,0.7,1.2,0.4,1.5l-7.8,7.9c-0.3,0.3-1,0.2-1.5-0.4
		C30.9,100.6,30.7,99.9,31.1,99.6z"/>
	<path class="st3" d="M34.4,103l7.8-7.9c0.3-0.3,1-0.2,1.5,0.4c0.5,0.5,0.7,1.2,0.4,1.5l-7.8,7.9c-0.3,0.3-1,0.2-1.5-0.4
		C34.3,104,34.1,103.3,34.4,103z"/>
	<path class="st3" d="M37.8,106.3l7.8-7.9c0.3-0.3,1-0.2,1.5,0.4c0.5,0.5,0.7,1.2,0.4,1.5l-7.8,7.9c-0.3,0.3-1,0.2-1.5-0.4
		C37.6,107.3,37.5,106.6,37.8,106.3z"/>
	<path class="st3" d="M41.2,109.6l7.8-7.9c0.3-0.3,1-0.2,1.5,0.4c0.5,0.5,0.7,1.2,0.4,1.5l-7.8,7.9c-0.3,0.3-1,0.2-1.5-0.4
		C41,110.7,40.8,110,41.2,109.6z"/>
	<path class="st3" d="M44.5,113l7.8-7.9c0.3-0.3,1-0.2,1.5,0.4c0.5,0.5,0.7,1.2,0.4,1.5l-7.8,7.9c-0.3,0.3-1,0.2-1.5-0.4
		S44.2,113.3,44.5,113z"/>
	<path class="st1" d="M122.2,155.9c0,13.3-5.4,14.6-19.9,14.6H79.8c-14.5,0-17.4,0.6-17.4-12.7L54,115.4c-0.3,1.4-0.4,2.8-0.4,4.3
		l8.8,44.6c0,13.3,2.9,12.7,17.4,12.7h22.5c14.5,0,19.9-1.3,19.9-14.6l6.4-42.7c0-1.4-0.1-2.7-0.4-4L122.2,155.9z"/>
	<path class="st1" d="M139,185.8l-18.7-72.4c-2-7.8-9.7-12.7-17.6-11.3c5.8,1,10.7,5.3,12.3,11.3l18.7,72.4
		c2.1,8.2-2.8,16.7-11.1,18.8c-0.4,0.1-0.8,0.2-1.2,0.3c0.9,0.2,1.8,0.2,2.7,0.2c1.3,0,2.6-0.2,3.9-0.5
		C136.1,202.5,141.1,194.1,139,185.8z"/>
	<path class="st4" d="M133.6,185.8l-18.7-72.4c-1.6-6-6.5-10.3-12.3-11.3c-0.4,0.1-0.8,0.1-1.2,0.2c-8.2,2.1-13.2,10.5-11.1,18.8
		l18.7,72.4c1.6,6,6.5,10.3,12.3,11.3c0.4-0.1,0.8-0.2,1.2-0.3C130.8,202.5,135.8,194.1,133.6,185.8z"/>
	<path class="st1" d="M82.1,102.3c-2.2-0.6-4.5-0.6-6.6-0.2c0.4,0.1,0.7,0.1,1.1,0.2c8.3,2.1,13.2,10.5,11.1,18.8L69,193.5
		c-1.6,6-6.5,10.3-12.2,11.3c0.9,0.2,1.9,0.3,2.8,0.3c6.9,0,13.1-4.6,14.9-11.6l18.7-72.4C95.3,112.8,90.3,104.4,82.1,102.3z"/>
	<path class="st4" d="M102.3,95.6h-4.8c4.2-4.5,4.6-11.3,1.1-16.2c-5-3.5-12-3.1-16.5,1.4l-61.5,60.9c-4.5,4.5-5,11.5-1.5,16.6
		c2.2,1.6,4.8,2.3,7.4,2.3c3.3,0,6.6-1.2,9.1-3.7L57.7,135l-13.1,50.8c-2.1,8.2,2.8,16.7,11.1,18.8c0.4,0.1,0.7,0.2,1.1,0.2
		c5.7-1,10.6-5.3,12.2-11.3l6-23.1c1.4,0,3.1,0,4.8,0h22.5c14.5,0,19.9-1.3,19.9-14.6l6-40.2C126.1,104.3,115.3,95.6,102.3,95.6z"/>
	<path class="st1" d="M162.3,141.7l-61.5-60.9c-5.1-5-13.3-5-18.3,0.1c-0.5,0.5-1,1.1-1.4,1.7c5-3.5,12-3.1,16.5,1.4l61.5,60.9
		c4.5,4.5,5,11.5,1.5,16.6c0.6-0.4,1.2-0.9,1.8-1.5C167.4,154.9,167.3,146.7,162.3,141.7z"/>
	<path class="st4" d="M159.1,144.9l-61.5-61c-4.5-4.5-11.5-4.9-16.5-1.4c-3.6,5.1-3.1,12.1,1.5,16.6l61.5,60.9
		c2.5,2.5,5.8,3.7,9.1,3.7c2.6,0,5.2-0.8,7.4-2.3C164.1,156.4,163.7,149.4,159.1,144.9z"/>
	<path class="st1" d="M158.9,148.9l-6.6-0.7c-4.8-0.5-9.2,2.3-11,6.5c-0.2-1-0.3-2.1-0.2-3.3V151c0.6-5.9,5.9-10.3,11.9-9.7l6.6,0.7
		c5.9,0.6,10.3,5.9,9.7,11.9v0.4c-0.1,1.1-0.4,2.2-0.8,3.2C167.5,153,163.7,149.4,158.9,148.9z"/>
	<path class="st4" d="M157.4,164.1l-6.6-0.7c-4.8-0.5-8.6-4.1-9.5-8.6c1.8-4.2,6.2-7,11-6.5l6.6,0.7c4.8,0.5,8.6,4.1,9.5,8.6
		C166.6,161.8,162.2,164.5,157.4,164.1z"/>
	<g>
		<path class="st5" d="M144.3,157.5L144.3,157.5c0-0.2,0-0.4,0-0.6c0.3-1.8,2-2.9,3.8-2.6c1.8,0.3,2.9,2,2.6,3.8
			c0,0.2-0.1,0.4-0.2,0.5l0,0v0.1c0,0,0,0,0,0.1l-5.7,14l-0.5-15.1C144.3,157.6,144.3,157.6,144.3,157.5L144.3,157.5z"/>
		<path class="st5" d="M150.9,158.7L150.9,158.7c0-0.2,0-0.4,0-0.6c0.3-1.8,2-2.9,3.8-2.6c1.8,0.3,2.9,2,2.6,3.8
			c0,0.2-0.1,0.4-0.2,0.5l0,0v0.1c0,0,0,0,0,0.1l-5.7,14l-0.5-15.1C150.9,158.8,150.9,158.7,150.9,158.7L150.9,158.7z"/>
		<path class="st5" d="M157.5,159.8L157.5,159.8c0-0.2,0-0.4,0-0.6c0.3-1.8,2-2.9,3.8-2.6s2.9,2,2.6,3.8c0,0.2-0.1,0.4-0.2,0.5l0,0
			v0.1c0,0,0,0,0,0.1l-5.7,14l-0.5-15.1C157.5,160,157.5,159.9,157.5,159.8L157.5,159.8z"/>
	</g>
	<path class="st1" d="M30.2,148.6l-6.6,0.7c-4.8,0.5-8.5,4.2-9.4,8.7c-0.4-1-0.7-2-0.9-3.2v-0.4c-0.7-5.9,3.6-11.3,9.6-12l6.6-0.7
		c5.9-0.7,11.3,3.6,12,9.6v0.4c0.1,1.1,0.1,2.2-0.1,3.3C39.5,150.8,35,148.1,30.2,148.6z"/>
	<path class="st4" d="M31.9,163.7l-6.6,0.7c-4.8,0.5-9.2-2.2-11.1-6.4c0.9-4.5,4.6-8.2,9.4-8.7l6.6-0.7c4.8-0.5,9.2,2.2,11.1,6.4
		C40.5,159.5,36.7,163.2,31.9,163.7z"/>
	<g>
		<path class="st5" d="M17.9,159.1L17.9,159.1c-0.1-0.2-0.1-0.4-0.1-0.6c-0.2-1.8,1.1-3.4,2.9-3.6c1.8-0.2,3.4,1.1,3.6,2.9
			c0,0.2,0,0.4,0,0.6l0,0v0.1c0,0,0,0,0,0.1l-1.5,15.1L18,159.4C17.9,159.2,17.9,159.2,17.9,159.1L17.9,159.1z"/>
		<path class="st5" d="M24.5,158.3L24.5,158.3c-0.1-0.2-0.1-0.4-0.1-0.6c-0.2-1.8,1.1-3.4,2.9-3.6s3.4,1.1,3.6,2.9
			c0,0.2,0,0.4,0,0.6l0,0v0.1c0,0,0,0,0,0.1l-1.5,15.1l-4.8-14.3C24.5,158.5,24.5,158.4,24.5,158.3L24.5,158.3z"/>
		<path class="st5" d="M31.2,157.6L31.2,157.6c-0.1-0.2-0.1-0.4-0.1-0.6c-0.2-1.8,1.1-3.4,2.9-3.6s3.4,1.1,3.6,2.9
			c0,0.2,0,0.4,0,0.6l0,0v0.1c0,0,0,0,0,0.1l-1.6,15l-4.8-14.3C31.2,157.7,31.2,157.7,31.2,157.6L31.2,157.6z"/>
	</g>
	<ellipse class="st6" cx="90.1" cy="128" rx="29.2" ry="31.2"/>
	<g>
		<g>
			<line class="st7" x1="61" y1="102.5" x2="61.1" y2="102.5"/>
			<line class="st8" x1="62.7" y1="104.2" x2="88.2" y2="129.6"/>
			<polyline class="st7" points="89,130.5 89.1,130.5 89.1,130.5 			"/>
			<line class="st9" x1="90.8" y1="128.8" x2="118.3" y2="101.3"/>
			<line class="st7" x1="119.1" y1="100.5" x2="119.2" y2="100.4"/>
		</g>
	</g>
	<path class="st1" d="M91.5,99.2c-0.8,0-1.6,0-2.4,0s-1.6,0-2.4,0c-9.1,0-17.4-1.4-24.4-4.1c-1,0.7-1.9,1.5-2.7,2.3
		c5.4,8.5,16.6,14.4,29.6,14.4c13.6,0,25.2-6.4,30.3-15.6c-0.7-0.6-1.4-1.1-2.1-1.7C109.9,97.6,101.2,99.2,91.5,99.2z"/>
	<rect x="85.9" y="45.5" width="2.9" height="23.2"/>
	<path class="st4" d="M87.4,17.8c27.8,0,50.4,21.5,50.4,48.1s-20.1,39.2-48,39.2c-0.8,0-1.6,0-2.4,0s-1.6,0-2.4,0
		c-27.8,0-48-12.7-48-39.2S59.5,17.8,87.4,17.8z"/>
	<path class="st6" d="M46.3,64c0-6.3,2.8-12,7.2-16.1c1.2-1.1,2.5-2,3.9-2.8c2.4-1.3,5.2-2.1,8-2.4c3.9-0.4,7.9,0.1,11.6,1.7l4,1.7
		c2,0.9,4.2,1.3,6.4,1.3c2.2,0,4.4-0.5,6.4-1.3l4-1.7c3.7-1.6,7.7-2.1,11.6-1.7c2.8,0.3,5.5,1.1,8,2.4c1.4,0.8,2.7,1.7,3.9,2.8
		c4.4,4.1,7.2,9.8,7.2,16.1v0.1v0.1c0,3.2-0.5,6.1-1.4,8.6c-4.4,13.1-19.2,15.5-38.4,15.4c-0.4,0-0.9,0-1.3,0s-0.9,0-1.3,0
		c-19.2,0.1-34-2.3-38.4-15.4c-0.9-2.5-1.4-5.4-1.4-8.6L46.3,64C46.3,64.1,46.3,64.1,46.3,64z"/>
	<path class="st4" d="M63.1,47.3c0.2-0.1,0.4-0.1,0.6-0.1c2.7-0.6,5.7,0.3,7.7,2.2c2.5,2.3,3.1,5.7,2.1,8.8
		c-0.5,1.6-1.6,3.1-3.1,3.9c-1.1,0.6-2.4,0.9-3.7,1c-2.4,0.2-4.9,0.1-7.3,0.5c-2.3,0.4-4.6,1.3-6.5,2.7c-2.4,1.8-2.7,6.9-2.7,6.9
		c-0.1-0.6-0.2-1.4-0.3-2c-0.2-1.7-0.2-3.3-0.2-5c0.4-7.2,3.7-13.8,10-17.5C60.8,48.2,61.9,47.7,63.1,47.3z"/>
	<path class="st6" d="M66.6,60.5L66.6,60.5c2.3,0,4.1-1.9,4.1-4.2l-0.1-2.4c0-2.3-1.8-4.2-4.1-4.2l0,0c-2.3,0-4.1,1.9-4.1,4.2
		l0.1,2.4C62.5,58.6,64.4,60.5,66.6,60.5z"/>
	<circle class="st5" cx="66.7" cy="55.4" r="3.1"/>
	<path class="st4" d="M111.7,47.3c-0.2-0.1-0.4-0.1-0.6-0.1c-2.7-0.6-5.7,0.3-7.7,2.2c-2.5,2.3-3.1,5.7-2.1,8.8
		c0.5,1.6,1.6,3.1,3.1,3.9c1.1,0.6,2.4,0.9,3.7,1c2.4,0.2,4.9,0.1,7.3,0.5c2.3,0.4,4.6,1.3,6.5,2.7c2.4,1.8,2.7,6.9,2.7,6.9
		c0.1-0.6,0.2-1.4,0.3-2c0.2-1.7,0.2-3.3,0.2-5c-0.4-7.2-3.7-13.8-10-17.5C114,48.2,112.9,47.7,111.7,47.3z"/>
	<path class="st6" d="M108.2,60.5L108.2,60.5c-2.3,0-4.1-1.9-4.1-4.2l0.1-2.4c0-2.3,1.8-4.2,4.1-4.2l0,0c2.3,0,4.1,1.9,4.1,4.2
		l-0.1,2.4C112.2,58.6,110.4,60.5,108.2,60.5z"/>
	<circle class="st5" cx="108" cy="55.4" r="3.1"/>
	<rect x="85.9" y="47.3" class="st4" width="3" height="22.3"/>
	<path class="st5" d="M102.7,53.9l11.8-1.3c0,0-3.9-4.3-6.9-4.3C104.5,48.3,102.7,53.9,102.7,53.9z"/>
	<path class="st5" d="M61.9,53.2l9.9,1.1c0,0-2.4-5.7-5.5-5.7C63.3,48.6,61.9,53.2,61.9,53.2z"/>
	<circle class="st4" cx="65.4" cy="54.5" r="0.5"/>
	<circle class="st4" cx="106.6" cy="54.5" r="0.5"/>
	<path class="st5" d="M82.3,51h5.1h5.1c3.5-0.1,6.4,2.8,6.4,6.4C99,61,96.2,64,92.7,64h-0.6c-0.1,0-0.2,0-0.2,0h-4.5h-4.5
		c-0.1,0-0.2,0-0.2,0h-0.6c-3.5-0.1-6.3-3.1-6.2-6.7C75.9,53.8,78.8,50.9,82.3,51z"/>
	<path class="st5" d="M70,67.6c-0.5-0.2-0.9-0.5-1.3-0.8l0,0c0,0-0.1,0-0.1-0.1L87.3,67l18.7,0.2c0,0-0.1,0-0.1,0.1l0,0
		c-0.4,0.3-0.8,0.5-1.3,0.7l0,0c-0.5,0.2-1,0.4-1.5,0.6c-0.1,0-0.1,0.1-0.2,0.1c-0.5,0.2-1,0.3-1.6,0.5c-0.1,0-0.3,0.1-0.4,0.1
		c-0.5,0.1-1.1,0.3-1.6,0.4c-0.2,0.1-0.4,0.1-0.7,0.2c-0.5,0.1-1.1,0.2-1.6,0.3c-0.3,0-0.6,0.1-0.9,0.1c-0.5,0.1-1.1,0.1-1.6,0.2
		c-0.4,0-0.7,0.1-1.1,0.1c-0.5,0-1.1,0.1-1.6,0.1c-0.4,0-0.9,0.1-1.3,0.1c-0.5,0-1.1,0-1.6,0s-0.9,0-1.4,0h-0.1h-0.1
		c-0.5,0-0.9,0-1.4-0.1c-0.5,0-1.1,0-1.6-0.1c-0.4,0-0.9-0.1-1.3-0.1c-0.5,0-1.1-0.1-1.6-0.1c-0.4,0-0.8-0.1-1.1-0.1
		c-0.5-0.1-1.1-0.1-1.6-0.2c-0.3-0.1-0.6-0.1-0.9-0.2c-0.5-0.1-1.1-0.2-1.6-0.3c-0.2-0.1-0.5-0.1-0.7-0.2c-0.5-0.1-1.1-0.3-1.6-0.4
		c-0.2,0-0.3-0.1-0.4-0.1c-0.6-0.2-1.1-0.3-1.6-0.5c-0.1,0-0.1-0.1-0.2-0.1C71,68.1,70.5,67.8,70,67.6L70,67.6z"/>
	<g>
		<g>
			<path class="st10" d="M13.3,33.1c0,0,23.3-14.2,30.7-9.2s13.5,10.8,3.8,12.9S13.3,33.1,13.3,33.1z"/>
			<path class="st10" d="M14.3,50.1c0,0,16.4-13.4,24.2-12.5s7.8,0.9,7.8,0.9s0.3,11.5-7.5,10.7C31,48.3,14.3,50.1,14.3,50.1z"/>
		</g>
		<path class="st10" d="M121,30H53.8C47.7,35.2,43,41.8,40.1,49.2h94.5C131.8,41.8,127,35.2,121,30z"/>
	</g>
	<g>
		<path class="st3" d="M95.9,133.4c-0.2,0.6-0.5,1.1-0.9,1.5c-1.5-1.5-3.6-2.5-5.8-2.5c-4.5,0-8.2,3.7-8.2,8.2c0,2.4,1,4.5,2.6,6
			l0.3,0.3c1.4,1.2,3.3,1.9,5.3,1.9c4.3,0,7.8-3.3,8.1-7.6C97.6,139.2,97,136.5,95.9,133.4"/>
		<path class="st4" d="M84.8,146.7c-0.2,0.3-0.7,0.3-1,0.1s-0.3-0.7-0.1-1c0.2-0.3,0.7-0.3,1-0.1C85,145.9,85.1,146.4,84.8,146.7"/>
		<path class="st4" d="M95.9,144.2c-2,2.7-6.3,1.8-9.1,1.9c0,0-0.5,0-1,0.1c0,0,0.2-0.1,0.4-0.2c1.9-0.7,2.9-0.8,4-1.4
			c2.2-1.1,4.4-3.6,4.9-6.2c-0.8,2.5-3.4,4.6-5.7,5.4c-1.6,0.6-4.5,1.2-4.5,1.2l-0.1-0.1c-2-1-2-5.2,1.5-6.6
			c1.6-0.6,3.1-0.3,4.7-0.7c1.8-0.4,3.9-1.8,4.7-3.5C96.8,137.1,97.9,141.5,95.9,144.2"/>
	</g>
</g>
</svg>
